G04*
G04 #@! TF.GenerationSoftware,Altium Limited,Altium Designer,23.4.1 (23)*
G04*
G04 Layer_Color=16711935*
%FSLAX25Y25*%
%MOIN*%
G70*
G04*
G04 #@! TF.SameCoordinates,90884238-BF1D-4E64-AC19-F0AC37931AF7*
G04*
G04*
G04 #@! TF.FilePolarity,Positive*
G04*
G01*
G75*
%ADD89C,0.00000*%
%ADD90C,0.03200*%
G36*
X162780Y248384D02*
X162851Y248378D01*
X162929Y248371D01*
X163020Y248358D01*
X163117Y248339D01*
X163331Y248293D01*
X163441Y248255D01*
X163545Y248216D01*
X163655Y248170D01*
X163759Y248119D01*
X163856Y248054D01*
X163946Y247983D01*
X163953Y247976D01*
X163966Y247963D01*
X163985Y247937D01*
X164018Y247905D01*
X164050Y247866D01*
X164089Y247814D01*
X164128Y247749D01*
X164173Y247678D01*
X164212Y247600D01*
X164257Y247509D01*
X164296Y247412D01*
X164329Y247302D01*
X164361Y247185D01*
X164381Y247062D01*
X164393Y246926D01*
X164400Y246784D01*
Y244081D01*
X163344D01*
Y246719D01*
Y246725D01*
Y246738D01*
Y246758D01*
Y246790D01*
X163337Y246868D01*
X163324Y246965D01*
X163305Y247075D01*
X163273Y247179D01*
X163234Y247283D01*
X163182Y247373D01*
X163175Y247380D01*
X163149Y247406D01*
X163110Y247438D01*
X163052Y247477D01*
X162974Y247522D01*
X162884Y247555D01*
X162767Y247581D01*
X162637Y247587D01*
X162605D01*
X162579Y247581D01*
X162514Y247574D01*
X162437Y247561D01*
X162346Y247535D01*
X162255Y247503D01*
X162171Y247451D01*
X162100Y247386D01*
X162093Y247373D01*
X162074Y247347D01*
X162041Y247296D01*
X162009Y247224D01*
X161983Y247134D01*
X161951Y247017D01*
X161931Y246881D01*
X161925Y246719D01*
Y244081D01*
X160868D01*
Y246777D01*
Y246784D01*
Y246810D01*
Y246849D01*
X160875Y246907D01*
X160881Y246972D01*
X160894Y247043D01*
X160907Y247127D01*
X160927Y247218D01*
X160946Y247315D01*
X160979Y247412D01*
X161011Y247509D01*
X161056Y247613D01*
X161108Y247710D01*
X161167Y247801D01*
X161238Y247892D01*
X161316Y247976D01*
X161322Y247983D01*
X161335Y247995D01*
X161361Y248015D01*
X161400Y248041D01*
X161445Y248073D01*
X161503Y248106D01*
X161568Y248145D01*
X161646Y248183D01*
X161737Y248222D01*
X161834Y248261D01*
X161944Y248293D01*
X162061Y248326D01*
X162190Y248352D01*
X162326Y248371D01*
X162475Y248384D01*
X162637Y248391D01*
X162722D01*
X162780Y248384D01*
D02*
G37*
G36*
X159935Y247561D02*
X159047D01*
Y245339D01*
X159935D01*
Y244652D01*
X159812D01*
X159754Y244645D01*
X159689D01*
X159553Y244632D01*
X159546D01*
X159521Y244626D01*
X159488Y244619D01*
X159443Y244613D01*
X159339Y244587D01*
X159287Y244567D01*
X159242Y244548D01*
X159235Y244542D01*
X159222Y244535D01*
X159197Y244522D01*
X159164Y244496D01*
X159099Y244444D01*
X159035Y244367D01*
X159028Y244360D01*
X159022Y244347D01*
X159009Y244321D01*
X158996Y244289D01*
X158976Y244244D01*
X158963Y244192D01*
X158950Y244140D01*
X158944Y244075D01*
X158017D01*
Y247561D01*
X157149D01*
Y248300D01*
X159935D01*
Y247561D01*
D02*
G37*
D89*
X26612Y219841D02*
X25557Y219631D01*
X24663Y219034D01*
X24066Y218140D01*
X23856Y217085D01*
X29368D02*
X29158Y218140D01*
X28561Y219034D01*
X27666Y219631D01*
X26612Y219841D01*
Y211967D02*
X27666Y212177D01*
X28561Y212774D01*
X29158Y213668D01*
X29368Y214723D01*
X23856D02*
X24066Y213668D01*
X24663Y212774D01*
X25557Y212177D01*
X26612Y211967D01*
X19269Y220195D02*
X19533Y219211D01*
X20254Y218491D01*
X21238Y218227D01*
X31986D02*
X32970Y218491D01*
X33691Y219211D01*
X33954Y220195D01*
X33691Y221180D01*
X32970Y221900D01*
X31986Y222164D01*
X21238D02*
X20254Y221900D01*
X19533Y221180D01*
X19269Y220195D01*
X26612Y243463D02*
X27666Y243673D01*
X28561Y244270D01*
X29158Y245164D01*
X29368Y246219D01*
X23856D02*
X24066Y245164D01*
X24663Y244270D01*
X25557Y243673D01*
X26612Y243463D01*
Y251337D02*
X25557Y251127D01*
X24663Y250530D01*
X24066Y249636D01*
X23856Y248581D01*
X29368D02*
X29158Y249636D01*
X28561Y250530D01*
X27666Y251127D01*
X26612Y251337D01*
X33954Y243109D02*
X33691Y244093D01*
X32970Y244813D01*
X31986Y245077D01*
X21238D02*
X20254Y244813D01*
X19533Y244093D01*
X19269Y243109D01*
X19533Y242124D01*
X20254Y241404D01*
X21238Y241140D01*
X31986D02*
X32970Y241404D01*
X33691Y242124D01*
X33954Y243109D01*
X29368Y214723D02*
Y217085D01*
X23856Y214723D02*
Y217085D01*
X21238Y218227D02*
X31986D01*
X21238Y222164D02*
X31986D01*
X23856Y246219D02*
Y248581D01*
X29368Y246219D02*
Y248581D01*
X21238Y245077D02*
X31986D01*
X21238Y241140D02*
X31986D01*
D90*
X242500Y368000D02*
X277500Y333000D01*
X35000Y368000D02*
X242500D01*
X17300Y350300D02*
X35000Y368000D01*
X17300Y291000D02*
Y350300D01*
X0Y273700D02*
X17300Y291000D01*
X0Y35000D02*
Y273700D01*
Y35000D02*
X35000Y0D01*
X242500D01*
X277400Y34900D01*
Y67600D01*
X263500Y81500D02*
X277400Y67600D01*
X249200Y81500D02*
X263500D01*
X249200D02*
Y200800D01*
X263500D01*
X277500Y214800D01*
X277500Y333000D02*
X277500Y214800D01*
M02*
