G04*
G04 #@! TF.GenerationSoftware,Altium Limited,Altium Designer,23.4.1 (23)*
G04*
G04 Layer_Color=16711935*
%FSLAX25Y25*%
%MOIN*%
G70*
G04*
G04 #@! TF.SameCoordinates,90884238-BF1D-4E64-AC19-F0AC37931AF7*
G04*
G04*
G04 #@! TF.FilePolarity,Positive*
G04*
G01*
G75*
%ADD10C,0.00787*%
%ADD12C,0.00500*%
%ADD13C,0.00394*%
D10*
X26789Y159695D02*
X26002D01*
X26789D01*
X135606Y331648D02*
X134819D01*
X135606D01*
X85251Y219959D02*
X84258Y219931D01*
X83268Y219848D01*
X82284Y219709D01*
X81309Y219515D01*
X80347Y219267D01*
X79400Y218965D01*
X78472Y218611D01*
X77565Y218205D01*
X76682Y217748D01*
X75826Y217244D01*
X74999Y216691D01*
X74205Y216094D01*
X73446Y215453D01*
X72724Y214770D01*
X72041Y214048D01*
X71400Y213289D01*
X70802Y212495D01*
X70250Y211668D01*
X69745Y210812D01*
X69289Y209929D01*
X68884Y209022D01*
X68529Y208094D01*
X68227Y207147D01*
X67979Y206185D01*
X67785Y205210D01*
X67646Y204226D01*
X67563Y203236D01*
X67535Y202243D01*
X67563Y201249D01*
X67646Y200259D01*
X67785Y199275D01*
X67979Y198300D01*
X68227Y197338D01*
X68529Y196391D01*
X68884Y195463D01*
X69289Y194556D01*
X69745Y193673D01*
X70250Y192817D01*
X70802Y191990D01*
X71400Y191197D01*
X72041Y190437D01*
X72724Y189715D01*
X73446Y189032D01*
X74205Y188391D01*
X74999Y187794D01*
X75826Y187241D01*
X76682Y186737D01*
X77564Y186281D01*
X78471Y185875D01*
X79400Y185520D01*
X80347Y185218D01*
X81309Y184970D01*
X82284Y184776D01*
X83268Y184637D01*
X84258Y184554D01*
X85251Y184526D01*
X85251D02*
X86245Y184554D01*
X87235Y184637D01*
X88219Y184776D01*
X89194Y184970D01*
X90156Y185218D01*
X91103Y185520D01*
X92031Y185875D01*
X92938Y186281D01*
X93821Y186737D01*
X94677Y187241D01*
X95503Y187794D01*
X96298Y188391D01*
X97057Y189032D01*
X97779Y189715D01*
X98462Y190437D01*
X99103Y191197D01*
X99700Y191990D01*
X100252Y192817D01*
X100757Y193673D01*
X101214Y194556D01*
X101619Y195463D01*
X101974Y196391D01*
X102276Y197338D01*
X102524Y198300D01*
X102718Y199275D01*
X102857Y200259D01*
X102940Y201249D01*
X102968Y202243D01*
X102940Y203236D01*
X102857Y204226D01*
X102718Y205210D01*
X102524Y206185D01*
X102276Y207147D01*
X101974Y208094D01*
X101619Y209022D01*
X101213Y209929D01*
X100757Y210812D01*
X100252Y211668D01*
X99700Y212495D01*
X99103Y213289D01*
X98462Y214048D01*
X97779Y214770D01*
X97057Y215453D01*
X96297Y216094D01*
X95503Y216691D01*
X94677Y217244D01*
X93821Y217748D01*
X92938Y218205D01*
X92031Y218611D01*
X91103Y218965D01*
X90156Y219267D01*
X89194Y219515D01*
X88219Y219709D01*
X87235Y219848D01*
X86245Y219931D01*
X85251Y219959D01*
X30245Y317800D02*
X29458D01*
X30245D01*
X109724Y258042D02*
X108937D01*
X109724D01*
X157369Y228212D02*
X171148D01*
Y217188D02*
Y228212D01*
X157369Y217188D02*
X171148D01*
X157369D02*
Y228212D01*
X189412Y236603D02*
Y250383D01*
X178388Y236603D02*
X189412D01*
X178388D02*
Y250383D01*
X189412D01*
X29941Y114573D02*
X59862D01*
Y155912D01*
X29941D02*
X59862D01*
X29941Y114573D02*
Y155912D01*
X28484Y89735D02*
X61948D01*
Y106665D01*
X28484D02*
X61948D01*
X28484Y89735D02*
Y106665D01*
X67535Y241821D02*
X96275D01*
Y231979D02*
Y241821D01*
X67535Y231979D02*
X96275D01*
X67535D02*
Y241821D01*
D12*
X206455Y49400D02*
X206366Y50384D01*
X206104Y51337D01*
X205675Y52227D01*
X205094Y53026D01*
X204380Y53709D01*
X203555Y54254D01*
X202646Y54642D01*
X201683Y54862D01*
X200696Y54906D01*
X199717Y54774D01*
X198777Y54468D01*
X197907Y54000D01*
X197134Y53384D01*
X196484Y52640D01*
X195977Y51792D01*
X195630Y50866D01*
X195454Y49894D01*
Y48906D01*
X195630Y47934D01*
X195977Y47008D01*
X196484Y46160D01*
X197134Y45416D01*
X197907Y44800D01*
X198777Y44332D01*
X199717Y44026D01*
X200696Y43894D01*
X201683Y43938D01*
X202647Y44158D01*
X203555Y44546D01*
X204380Y45091D01*
X205094Y45774D01*
X205675Y46573D01*
X206104Y47463D01*
X206366Y48416D01*
X206455Y49400D01*
X241328D02*
X241240Y50384D01*
X240977Y51337D01*
X240548Y52227D01*
X239967Y53026D01*
X239253Y53709D01*
X238428Y54254D01*
X237520Y54642D01*
X236556Y54862D01*
X235569Y54906D01*
X234590Y54774D01*
X233650Y54468D01*
X232780Y54000D01*
X232008Y53384D01*
X231357Y52640D01*
X230851Y51792D01*
X230503Y50866D01*
X230327Y49894D01*
Y48906D01*
X230503Y47934D01*
X230851Y47008D01*
X231357Y46160D01*
X232008Y45416D01*
X232780Y44800D01*
X233650Y44332D01*
X234590Y44026D01*
X235569Y43894D01*
X236556Y43938D01*
X237520Y44158D01*
X238428Y44546D01*
X239253Y45091D01*
X239967Y45774D01*
X240548Y46573D01*
X240977Y47463D01*
X241240Y48416D01*
X241328Y49400D01*
X132260Y331648D02*
X132228Y332647D01*
X132133Y333642D01*
X131975Y334628D01*
X131755Y335603D01*
X131474Y336562D01*
X131132Y337501D01*
X130731Y338416D01*
X130273Y339305D01*
X129760Y340162D01*
X129193Y340985D01*
X128576Y341771D01*
X127909Y342515D01*
X127197Y343216D01*
X126442Y343871D01*
X125647Y344476D01*
X124815Y345029D01*
X123949Y345529D01*
X123054Y345973D01*
X122132Y346359D01*
X121188Y346686D01*
X120224Y346952D01*
X119246Y347157D01*
X118257Y347299D01*
X117261Y347378D01*
X116262Y347394D01*
X115264Y347346D01*
X114271Y347236D01*
X113286Y347062D01*
X112315Y346827D01*
X111361Y346530D01*
X110428Y346173D01*
X109519Y345758D01*
X108638Y345286D01*
X107789Y344759D01*
X106975Y344180D01*
X106199Y343550D01*
X105465Y342872D01*
X104775Y342148D01*
X104133Y341383D01*
X103541Y340578D01*
X103000Y339737D01*
X102514Y338864D01*
X102085Y337962D01*
X101714Y337034D01*
X101402Y336085D01*
X101151Y335118D01*
X100962Y334136D01*
X100835Y333145D01*
X100772Y332148D01*
Y331148D01*
X100835Y330151D01*
X100962Y329160D01*
X101151Y328179D01*
X101402Y327211D01*
X101714Y326262D01*
X102085Y325334D01*
X102514Y324432D01*
X103000Y323559D01*
X103541Y322718D01*
X104133Y321913D01*
X104775Y321148D01*
X105465Y320425D01*
X106199Y319746D01*
X106975Y319116D01*
X107789Y318537D01*
X108638Y318010D01*
X109519Y317538D01*
X110428Y317123D01*
X111361Y316766D01*
X112315Y316469D01*
X113286Y316234D01*
X114271Y316060D01*
X115264Y315950D01*
X116262Y315902D01*
X117261Y315918D01*
X118257Y315997D01*
X119246Y316139D01*
X120224Y316344D01*
X121188Y316610D01*
X122132Y316937D01*
X123054Y317323D01*
X123949Y317767D01*
X124815Y318267D01*
X125647Y318820D01*
X126442Y319425D01*
X127197Y320080D01*
X127909Y320781D01*
X128576Y321525D01*
X129193Y322311D01*
X129760Y323134D01*
X130273Y323991D01*
X130731Y324880D01*
X131132Y325795D01*
X131474Y326734D01*
X131755Y327693D01*
X131975Y328668D01*
X132133Y329654D01*
X132228Y330649D01*
X132260Y331648D01*
X95796Y317800D02*
X95780Y318799D01*
X95733Y319798D01*
X95653Y320794D01*
X95543Y321787D01*
X95400Y322776D01*
X95227Y323761D01*
X95022Y324739D01*
X94787Y325710D01*
X94520Y326674D01*
X94223Y327628D01*
X93897Y328572D01*
X93540Y329506D01*
X93154Y330428D01*
X92739Y331337D01*
X92295Y332232D01*
X91823Y333113D01*
X91323Y333979D01*
X90796Y334828D01*
X90243Y335660D01*
X89663Y336474D01*
X89058Y337270D01*
X88427Y338045D01*
X87773Y338801D01*
X87095Y339535D01*
X86394Y340247D01*
X85670Y340937D01*
X84926Y341603D01*
X84160Y342246D01*
X83374Y342863D01*
X82569Y343456D01*
X81746Y344023D01*
X80905Y344563D01*
X80048Y345076D01*
X79175Y345562D01*
X78286Y346020D01*
X77384Y346450D01*
X76468Y346850D01*
X75541Y347222D01*
X74601Y347564D01*
X73652Y347876D01*
X72693Y348157D01*
X71725Y348408D01*
X70751Y348628D01*
X69769Y348818D01*
X68782Y348975D01*
X67791Y349102D01*
X66796Y349197D01*
X65799Y349260D01*
X64800Y349292D01*
X63800D01*
X62801Y349260D01*
X61804Y349197D01*
X60809Y349102D01*
X59818Y348975D01*
X58831Y348818D01*
X57849Y348628D01*
X56875Y348408D01*
X55907Y348157D01*
X54948Y347876D01*
X53999Y347564D01*
X53060Y347222D01*
X52132Y346850D01*
X51216Y346450D01*
X50314Y346020D01*
X49425Y345562D01*
X48552Y345076D01*
X47695Y344563D01*
X46854Y344023D01*
X46031Y343456D01*
X45226Y342863D01*
X44440Y342246D01*
X43674Y341603D01*
X42930Y340937D01*
X42206Y340247D01*
X41505Y339535D01*
X40827Y338801D01*
X40173Y338045D01*
X39542Y337270D01*
X38937Y336474D01*
X38357Y335660D01*
X37804Y334828D01*
X37277Y333979D01*
X36777Y333113D01*
X36305Y332232D01*
X35861Y331337D01*
X35446Y330428D01*
X35060Y329506D01*
X34703Y328572D01*
X34376Y327628D01*
X34080Y326674D01*
X33813Y325710D01*
X33578Y324739D01*
X33373Y323761D01*
X33200Y322777D01*
X33057Y321787D01*
X32947Y320794D01*
X32867Y319798D01*
X32820Y318799D01*
X32804Y317800D01*
X32820Y316801D01*
X32867Y315803D01*
X32947Y314806D01*
X33057Y313813D01*
X33200Y312824D01*
X33373Y311839D01*
X33578Y310861D01*
X33813Y309890D01*
X34080Y308927D01*
X34376Y307972D01*
X34703Y307028D01*
X35060Y306094D01*
X35446Y305172D01*
X35861Y304263D01*
X36305Y303368D01*
X36777Y302487D01*
X37277Y301621D01*
X37804Y300772D01*
X38357Y299940D01*
X38937Y299126D01*
X39542Y298330D01*
X40172Y297555D01*
X40827Y296799D01*
X41505Y296065D01*
X42206Y295353D01*
X42930Y294663D01*
X43674Y293997D01*
X44440Y293355D01*
X45226Y292737D01*
X46030Y292144D01*
X46854Y291577D01*
X47694Y291037D01*
X48552Y290524D01*
X49425Y290038D01*
X50314Y289580D01*
X51216Y289150D01*
X52131Y288750D01*
X53059Y288378D01*
X53999Y288036D01*
X54948Y287724D01*
X55907Y287443D01*
X56874Y287192D01*
X57849Y286972D01*
X58831Y286783D01*
X59817Y286625D01*
X60809Y286498D01*
X61804Y286403D01*
X62801Y286340D01*
X63800Y286308D01*
X64799Y286308D01*
X65798Y286340D01*
X66796Y286403D01*
X67791Y286498D01*
X68782Y286625D01*
X69769Y286782D01*
X70750Y286971D01*
X71725Y287192D01*
X72693Y287443D01*
X73652Y287724D01*
X74601Y288036D01*
X75540Y288378D01*
X76468Y288749D01*
X77384Y289150D01*
X78286Y289580D01*
X79174Y290038D01*
X80048Y290524D01*
X80905Y291037D01*
X81746Y291577D01*
X82569Y292144D01*
X83374Y292737D01*
X84160Y293354D01*
X84925Y293997D01*
X85670Y294663D01*
X86393Y295353D01*
X87095Y296065D01*
X87773Y296799D01*
X88427Y297554D01*
X89057Y298330D01*
X89663Y299126D01*
X90242Y299940D01*
X90796Y300772D01*
X91323Y301621D01*
X91823Y302486D01*
X92295Y303367D01*
X92738Y304263D01*
X93154Y305172D01*
X93540Y306094D01*
X93897Y307027D01*
X94223Y307972D01*
X94520Y308926D01*
X94787Y309890D01*
X95022Y310861D01*
X95227Y311839D01*
X95400Y312823D01*
X95543Y313812D01*
X95653Y314806D01*
X95733Y315802D01*
X95780Y316800D01*
X95796Y317800D01*
X15588Y163935D02*
X58895D01*
Y267872D01*
X15588D02*
X58895D01*
X15588Y163935D02*
Y267872D01*
X190904Y59439D02*
X210983D01*
Y39361D02*
Y59439D01*
X190904Y39361D02*
X210983D01*
X190904D02*
Y59439D01*
X225777D02*
X245856D01*
Y39361D02*
Y59439D01*
X225777Y39361D02*
X245856D01*
X225777D02*
Y59439D01*
X103126Y285303D02*
X126748D01*
X103126Y308925D02*
X126748D01*
X103126Y285303D02*
Y308925D01*
X126748Y285303D02*
Y308925D01*
X102194Y250807D02*
X116466D01*
X102194Y233780D02*
Y250807D01*
Y233780D02*
X116466D01*
Y250807D01*
D13*
X227300Y339522D02*
X226297Y339501D01*
X225297Y339437D01*
X224300Y339331D01*
X223308Y339182D01*
X222323Y338992D01*
X221348Y338760D01*
X220383Y338487D01*
X219430Y338173D01*
X218492Y337819D01*
X217570Y337425D01*
X216665Y336993D01*
X215780Y336522D01*
X214915Y336015D01*
X214072Y335471D01*
X213253Y334892D01*
X212460Y334279D01*
X211694Y333632D01*
X210955Y332954D01*
X210246Y332245D01*
X209568Y331506D01*
X208921Y330740D01*
X208308Y329946D01*
X207729Y329128D01*
X207185Y328285D01*
X206678Y327420D01*
X206207Y326535D01*
X205775Y325630D01*
X205381Y324708D01*
X205027Y323769D01*
X204713Y322817D01*
X204440Y321852D01*
X204208Y320877D01*
X204018Y319892D01*
X203869Y318900D01*
X203763Y317903D01*
X203699Y316902D01*
X203678Y315900D01*
X203699Y314897D01*
X203763Y313897D01*
X203869Y312899D01*
X204018Y311908D01*
X204208Y310923D01*
X204440Y309948D01*
X204713Y308983D01*
X205027Y308031D01*
X205381Y307092D01*
X205775Y306170D01*
X206207Y305265D01*
X206678Y304380D01*
X207185Y303515D01*
X207729Y302672D01*
X208308Y301853D01*
X208921Y301060D01*
X209568Y300293D01*
X210246Y299555D01*
X210955Y298846D01*
X211694Y298168D01*
X212460Y297521D01*
X213254Y296908D01*
X214072Y296329D01*
X214915Y295785D01*
X215780Y295278D01*
X216665Y294807D01*
X217570Y294375D01*
X218492Y293981D01*
X219431Y293627D01*
X220383Y293313D01*
X221348Y293040D01*
X222323Y292808D01*
X223308Y292618D01*
X224300Y292469D01*
X225297Y292363D01*
X226297Y292299D01*
X227300Y292278D01*
X228303Y292299D01*
X229303Y292363D01*
X230300Y292469D01*
X231292Y292618D01*
X232277Y292808D01*
X233252Y293040D01*
X234217Y293313D01*
X235170Y293627D01*
X236108Y293981D01*
X237030Y294375D01*
X237935Y294807D01*
X238820Y295278D01*
X239685Y295785D01*
X240528Y296329D01*
X241347Y296908D01*
X242140Y297521D01*
X242906Y298168D01*
X243645Y298846D01*
X244354Y299555D01*
X245032Y300293D01*
X245679Y301060D01*
X246292Y301854D01*
X246871Y302672D01*
X247415Y303515D01*
X247922Y304380D01*
X248393Y305265D01*
X248825Y306170D01*
X249219Y307092D01*
X249573Y308031D01*
X249887Y308983D01*
X250160Y309948D01*
X250392Y310923D01*
X250582Y311908D01*
X250731Y312900D01*
X250837Y313897D01*
X250901Y314897D01*
X250922Y315900D01*
X250901Y316903D01*
X250837Y317903D01*
X250731Y318900D01*
X250582Y319892D01*
X250392Y320877D01*
X250160Y321852D01*
X249887Y322817D01*
X249573Y323769D01*
X249219Y324708D01*
X248825Y325630D01*
X248393Y326535D01*
X247922Y327420D01*
X247415Y328285D01*
X246871Y329128D01*
X246292Y329946D01*
X245679Y330740D01*
X245032Y331506D01*
X244354Y332245D01*
X243645Y332954D01*
X242906Y333632D01*
X242140Y334279D01*
X241346Y334892D01*
X240528Y335471D01*
X239685Y336015D01*
X238820Y336522D01*
X237935Y336993D01*
X237030Y337425D01*
X236108Y337819D01*
X235169Y338173D01*
X234217Y338487D01*
X233252Y338760D01*
X232277Y338992D01*
X231292Y339182D01*
X230300Y339331D01*
X229303Y339437D01*
X228303Y339501D01*
X227300Y339522D01*
X95074Y266321D02*
X95034Y267319D01*
X94913Y268311D01*
X94713Y269289D01*
X94436Y270248D01*
X94081Y271182D01*
X93653Y272085D01*
X93154Y272950D01*
X92587Y273771D01*
X91955Y274545D01*
X91263Y275265D01*
X90516Y275928D01*
X89717Y276528D01*
X88873Y277061D01*
X87989Y277525D01*
X87070Y277917D01*
X86123Y278233D01*
X85153Y278472D01*
X84167Y278632D01*
X83172Y278713D01*
X82173D01*
X81177Y278632D01*
X80192Y278472D01*
X79222Y278233D01*
X78275Y277917D01*
X77356Y277525D01*
X76472Y277061D01*
X75627Y276528D01*
X74829Y275928D01*
X74081Y275265D01*
X73390Y274545D01*
X72758Y273771D01*
X72191Y272950D01*
X71691Y272084D01*
X71263Y271182D01*
X70909Y270248D01*
X70631Y269289D01*
X70431Y268311D01*
X70311Y267319D01*
X70271Y266321D01*
X70311Y265323D01*
X70431Y264332D01*
X70631Y263353D01*
X70909Y262394D01*
X71263Y261460D01*
X71691Y260558D01*
X72191Y259693D01*
X72758Y258871D01*
X73390Y258098D01*
X74081Y257377D01*
X74829Y256715D01*
X75627Y256115D01*
X76472Y255581D01*
X77356Y255117D01*
X78275Y254726D01*
X79222Y254409D01*
X80192Y254170D01*
X81178Y254010D01*
X82173Y253930D01*
X83172D01*
X84167Y254010D01*
X85153Y254170D01*
X86123Y254409D01*
X87070Y254726D01*
X87989Y255117D01*
X88873Y255581D01*
X89717Y256115D01*
X90516Y256715D01*
X91263Y257377D01*
X91955Y258098D01*
X92587Y258871D01*
X93154Y259693D01*
X93653Y260558D01*
X94081Y261460D01*
X94436Y262394D01*
X94713Y263353D01*
X94913Y264332D01*
X95034Y265323D01*
X95074Y266321D01*
X195566Y107743D02*
X203834D01*
X195566Y113057D02*
X203834D01*
X195566Y107743D02*
Y113057D01*
X203834Y107743D02*
Y113057D01*
X195566Y140143D02*
X203834D01*
X195566Y145457D02*
X203834D01*
X195566Y140143D02*
Y145457D01*
X203834Y140143D02*
Y145457D01*
X195566Y129342D02*
X203834D01*
X195566Y134658D02*
X203834D01*
X195566Y129342D02*
Y134658D01*
X203834Y129342D02*
Y134658D01*
X195566Y118543D02*
X203834D01*
X195566Y123857D02*
X203834D01*
X195566Y118543D02*
Y123857D01*
X203834Y118543D02*
Y123857D01*
X173963Y25439D02*
X181837D01*
X173963D02*
Y30361D01*
X181837D01*
Y25439D02*
Y30361D01*
X181956Y109704D02*
Y172696D01*
X276444D01*
Y109704D02*
Y172696D01*
X181956Y109704D02*
X276444D01*
X244721Y264963D02*
Y272837D01*
X239800Y264963D02*
X244721D01*
X239800D02*
Y272837D01*
X244721D01*
X214210Y263191D02*
X219524D01*
X214210D02*
Y274609D01*
X219524D01*
Y263191D02*
Y274609D01*
X215784Y263191D02*
X219524Y266932D01*
X228878Y281325D02*
Y284475D01*
X224153Y281325D02*
X228878D01*
X224153D02*
Y284475D01*
X228878D01*
X150617Y259989D02*
X165183D01*
X150617Y233611D02*
X165183D01*
X150617D02*
Y259989D01*
X165183Y233611D02*
Y259989D01*
X221566Y185343D02*
Y190657D01*
X229834Y185343D02*
Y190657D01*
X221566D02*
X229834D01*
X221566Y185343D02*
X229834D01*
X203366D02*
Y190657D01*
X211634Y185343D02*
Y190657D01*
X203366D02*
X211634D01*
X203366Y185343D02*
X211634D01*
X214034Y90543D02*
Y95858D01*
X205766Y90543D02*
Y95858D01*
Y90543D02*
X214034D01*
X205766Y95858D02*
X214034D01*
X195834Y90543D02*
Y95858D01*
X187566Y90543D02*
Y95858D01*
Y90543D02*
X195834D01*
X187566Y95858D02*
X195834D01*
X167139Y306163D02*
X172061D01*
Y314037D01*
X167139D02*
X172061D01*
X167139Y306163D02*
Y314037D01*
X158139Y306163D02*
X163061D01*
Y314037D01*
X158139D02*
X163061D01*
X158139Y306163D02*
Y314037D01*
X157817Y338005D02*
X172383D01*
X157817Y326195D02*
X172383D01*
X157817D02*
Y338005D01*
X172383Y326195D02*
Y338005D01*
M02*
