G04*
G04 #@! TF.GenerationSoftware,Altium Limited,Altium Designer,23.4.1 (23)*
G04*
G04 Layer_Physical_Order=1*
G04 Layer_Color=255*
%FSLAX25Y25*%
%MOIN*%
G70*
G04*
G04 #@! TF.SameCoordinates,90884238-BF1D-4E64-AC19-F0AC37931AF7*
G04*
G04*
G04 #@! TF.FilePolarity,Positive*
G04*
G01*
G75*
%ADD18C,0.02000*%
%ADD22R,0.04724X0.03543*%
%ADD34R,0.02461X0.03248*%
%ADD36R,0.03543X0.04724*%
%ADD38R,0.03248X0.02461*%
%ADD39R,0.05733X0.04940*%
%ADD55R,0.03740X0.05512*%
%ADD56R,0.03937X0.09843*%
%ADD57R,0.07087X0.03937*%
%ADD58R,0.08780X0.07087*%
%ADD59R,0.06299X0.09449*%
G04:AMPARAMS|DCode=60|XSize=35.43mil|YSize=57.09mil|CornerRadius=1.95mil|HoleSize=0mil|Usage=FLASHONLY|Rotation=270.000|XOffset=0mil|YOffset=0mil|HoleType=Round|Shape=RoundedRectangle|*
%AMROUNDEDRECTD60*
21,1,0.03543,0.05319,0,0,270.0*
21,1,0.03154,0.05709,0,0,270.0*
1,1,0.00390,-0.02659,-0.01577*
1,1,0.00390,-0.02659,0.01577*
1,1,0.00390,0.02659,0.01577*
1,1,0.00390,0.02659,-0.01577*
%
%ADD60ROUNDEDRECTD60*%
%ADD61R,0.03937X0.06299*%
%ADD62R,0.05512X0.03740*%
%ADD63R,0.03937X0.02362*%
%ADD64R,0.02362X0.03150*%
%ADD65R,0.07087X0.08780*%
G04:AMPARAMS|DCode=66|XSize=124.02mil|YSize=57.09mil|CornerRadius=2mil|HoleSize=0mil|Usage=FLASHONLY|Rotation=270.000|XOffset=0mil|YOffset=0mil|HoleType=Round|Shape=RoundedRectangle|*
%AMROUNDEDRECTD66*
21,1,0.12402,0.05309,0,0,270.0*
21,1,0.12002,0.05709,0,0,270.0*
1,1,0.00400,-0.02655,-0.06001*
1,1,0.00400,-0.02655,0.06001*
1,1,0.00400,0.02655,0.06001*
1,1,0.00400,0.02655,-0.06001*
%
%ADD66ROUNDEDRECTD66*%
%ADD67R,0.22441X0.06299*%
%ADD68R,0.08346X0.08976*%
%ADD69R,0.25591X0.09843*%
%ADD70R,0.04724X0.05709*%
%ADD71C,0.04000*%
%ADD72C,0.06000*%
%ADD73C,0.14961*%
%ADD74C,0.06000*%
%ADD75R,0.06000X0.06000*%
G04:AMPARAMS|DCode=76|XSize=80mil|YSize=63.94mil|CornerRadius=0mil|HoleSize=0mil|Usage=FLASHONLY|Rotation=180.000|XOffset=0mil|YOffset=0mil|HoleType=Round|Shape=Octagon|*
%AMOCTAGOND76*
4,1,8,-0.04000,0.01598,-0.04000,-0.01598,-0.02402,-0.03197,0.02402,-0.03197,0.04000,-0.01598,0.04000,0.01598,0.02402,0.03197,-0.02402,0.03197,-0.04000,0.01598,0.0*
%
%ADD76OCTAGOND76*%

%ADD77R,0.11811X0.07617*%
%ADD78R,0.11811X0.11811*%
%ADD79C,0.07874*%
%ADD80C,0.07677*%
%ADD81R,0.05906X0.05906*%
%ADD82C,0.05906*%
%ADD83R,0.05906X0.05906*%
%ADD84C,0.05512*%
%ADD85R,0.06693X0.06693*%
%ADD86C,0.06693*%
%ADD87C,0.02362*%
G36*
X273901Y331509D02*
X273901Y216291D01*
X262009Y204399D01*
X249200D01*
X248268Y204277D01*
X247400Y203917D01*
X246655Y203345D01*
X246083Y202600D01*
X245723Y201732D01*
X245601Y200800D01*
Y191156D01*
X245194Y190624D01*
X243964D01*
Y188000D01*
X241964D01*
Y190624D01*
X241635D01*
Y191593D01*
X235237D01*
Y190994D01*
X233968D01*
Y192823D01*
X226674D01*
X226384Y193523D01*
X261330Y228470D01*
X261966Y229299D01*
X262366Y230264D01*
X262503Y231300D01*
Y275400D01*
X262366Y276436D01*
X262132Y277002D01*
X261966Y277401D01*
X261330Y278230D01*
X256607Y282954D01*
X257032Y283478D01*
X257768Y283173D01*
Y284827D01*
X256114D01*
X256419Y284091D01*
X255895Y283666D01*
X254130Y285430D01*
X253301Y286067D01*
X252336Y286466D01*
X251300Y286603D01*
X233865D01*
Y301844D01*
X242016Y309995D01*
X242842D01*
X243983Y310221D01*
X245058Y310667D01*
X246025Y311313D01*
X246848Y312136D01*
X247494Y313103D01*
X247939Y314177D01*
X248166Y315318D01*
Y316482D01*
X247939Y317623D01*
X247494Y318697D01*
X246848Y319665D01*
X246025Y320487D01*
X245058Y321133D01*
X243983Y321579D01*
X242842Y321806D01*
X241679D01*
X240538Y321579D01*
X239463Y321133D01*
X238496Y320487D01*
X237673Y319665D01*
X237027Y318697D01*
X236582Y317623D01*
X236355Y316482D01*
Y315655D01*
X227032Y306332D01*
X226744Y305957D01*
X226596Y305932D01*
X226076Y306036D01*
X225961Y306087D01*
X225762Y306567D01*
X225287Y307187D01*
X218064Y314410D01*
X218245Y315318D01*
Y316482D01*
X218018Y317623D01*
X217573Y318697D01*
X216927Y319665D01*
X216104Y320487D01*
X215137Y321133D01*
X214062Y321579D01*
X212921Y321806D01*
X211758D01*
X210617Y321579D01*
X209542Y321133D01*
X208575Y320487D01*
X207752Y319665D01*
X207106Y318697D01*
X206661Y317623D01*
X206434Y316482D01*
Y315318D01*
X206661Y314177D01*
X207106Y313103D01*
X207752Y312136D01*
X208575Y311313D01*
X209542Y310667D01*
X210617Y310221D01*
X211758Y309995D01*
X212921D01*
X213830Y310175D01*
X220175Y303830D01*
Y286443D01*
X220020D01*
Y285894D01*
X216700D01*
X215925Y285792D01*
X215203Y285493D01*
X214583Y285017D01*
X210183Y280617D01*
X209707Y279997D01*
X209408Y279275D01*
X209306Y278500D01*
Y272050D01*
X208402D01*
Y265750D01*
X216276D01*
Y272050D01*
X215294D01*
Y277260D01*
X217940Y279906D01*
X220020D01*
Y279357D01*
X226319D01*
X226319Y279357D01*
X226713D01*
Y279357D01*
X227019Y279357D01*
X227870D01*
X228161Y279134D01*
X229126Y278734D01*
X230162Y278597D01*
X249642D01*
X254497Y273742D01*
Y232958D01*
X221763Y200224D01*
X220956Y201030D01*
X220127Y201666D01*
X219162Y202066D01*
X218126Y202203D01*
X207900D01*
X206864Y202066D01*
X205899Y201666D01*
X205070Y201030D01*
X200733Y196693D01*
X200097Y195864D01*
X199697Y194899D01*
X199560Y193863D01*
Y192823D01*
X199232D01*
Y192003D01*
X183300D01*
X182264Y191866D01*
X181299Y191466D01*
X180470Y190830D01*
X176270Y186630D01*
X175634Y185801D01*
X175234Y184836D01*
X175097Y183800D01*
Y173464D01*
X175234Y172428D01*
X175634Y171463D01*
X176270Y170634D01*
X178613Y168291D01*
X179442Y167655D01*
X180407Y167255D01*
X181443Y167119D01*
X183924D01*
Y164822D01*
X176444D01*
Y157648D01*
X176444Y156948D01*
X176444Y156248D01*
Y149774D01*
X176444Y149074D01*
X176444Y148374D01*
Y142727D01*
X175744Y142464D01*
X173587Y144621D01*
X172758Y145257D01*
X171793Y145657D01*
X170757Y145793D01*
X159532D01*
Y153772D01*
X161834Y156073D01*
X162533Y155783D01*
Y155383D01*
X166400D01*
X170266D01*
Y155751D01*
X170919Y155866D01*
X171251Y155064D01*
X171864Y154451D01*
X172600Y154146D01*
Y156300D01*
Y158454D01*
X171935Y158178D01*
X171599Y158301D01*
X171235Y158510D01*
Y165323D01*
X170403D01*
Y189642D01*
X172730Y191970D01*
X173366Y192799D01*
X173766Y193764D01*
X173903Y194800D01*
X173766Y195836D01*
X173366Y196801D01*
X172730Y197630D01*
X171901Y198266D01*
X170936Y198666D01*
X169900Y198803D01*
X168864Y198666D01*
X167899Y198266D01*
X167070Y197630D01*
X163570Y194130D01*
X162934Y193301D01*
X162534Y192336D01*
X162397Y191300D01*
Y165323D01*
X161565D01*
Y164684D01*
X160782D01*
X159746Y164548D01*
X158780Y164148D01*
X157951Y163512D01*
X152699Y158260D01*
X152063Y157431D01*
X151663Y156466D01*
X151527Y155430D01*
Y144253D01*
X148748D01*
X147751Y145250D01*
X150169Y147667D01*
Y152833D01*
X147586Y155415D01*
X143691D01*
X143423Y156062D01*
X148930Y161570D01*
X149566Y162399D01*
X149966Y163364D01*
X150103Y164400D01*
Y194501D01*
X149966Y195537D01*
X149566Y196502D01*
X148930Y197331D01*
X140046Y206216D01*
Y217946D01*
X140571Y218369D01*
X140746Y218369D01*
X148051D01*
Y218697D01*
X152998D01*
Y216342D01*
X164022D01*
Y229058D01*
X162513D01*
Y241232D01*
X164078Y242797D01*
X170006D01*
X171042Y242934D01*
X171245Y243018D01*
X172666D01*
X173510Y243185D01*
X174225Y243664D01*
X174704Y244379D01*
X174872Y245223D01*
Y248377D01*
X174704Y249221D01*
X174225Y249937D01*
X173510Y250415D01*
X172666Y250583D01*
X171245D01*
X171042Y250666D01*
X170006Y250803D01*
X162420D01*
X161384Y250666D01*
X160419Y250267D01*
X159590Y249630D01*
X158510Y248551D01*
X157430Y249630D01*
X156601Y250267D01*
X155636Y250666D01*
X154600Y250803D01*
X150659D01*
Y252801D01*
X150491Y253647D01*
X150012Y254364D01*
X149294Y254843D01*
X148448Y255012D01*
X143139D01*
X142293Y254843D01*
X141576Y254364D01*
X141097Y253647D01*
X140928Y252801D01*
Y240799D01*
X141097Y239953D01*
X141576Y239236D01*
X142293Y238756D01*
X143139Y238588D01*
X148448D01*
X149294Y238756D01*
X150012Y239236D01*
X150491Y239953D01*
X150659Y240799D01*
Y242797D01*
X152942D01*
X154508Y241232D01*
Y229058D01*
X152998D01*
Y226703D01*
X148051D01*
Y227031D01*
X140571D01*
Y224897D01*
X139871Y224610D01*
X139783Y224699D01*
Y227031D01*
X132303D01*
Y224041D01*
X132177Y223736D01*
X132041Y222700D01*
Y204557D01*
X132177Y203521D01*
X132577Y202556D01*
X133213Y201727D01*
X142097Y192843D01*
Y166058D01*
X139409Y163370D01*
X138668Y163619D01*
X138535Y164116D01*
X138120Y164834D01*
X137534Y165420D01*
X136816Y165835D01*
X136015Y166050D01*
X135185D01*
X134605Y165894D01*
X125345D01*
X124999Y166530D01*
X125017Y166594D01*
X125685Y166980D01*
X126271Y167566D01*
X126530Y168014D01*
X138395Y179879D01*
X138916Y180180D01*
X139502Y180766D01*
X139917Y181484D01*
X140131Y182285D01*
Y183115D01*
X139917Y183916D01*
X139502Y184634D01*
X138916Y185220D01*
X138197Y185635D01*
X137396Y185850D01*
X136567D01*
X135766Y185635D01*
X135048Y185220D01*
X134461Y184634D01*
X134161Y184114D01*
X122410Y172363D01*
X121817Y172020D01*
X121231Y171434D01*
X120816Y170716D01*
X120601Y169915D01*
Y169085D01*
X120816Y168284D01*
X121231Y167566D01*
X121817Y166980D01*
X122485Y166594D01*
X122503Y166530D01*
X122157Y165894D01*
X108295D01*
X107715Y166050D01*
X106885D01*
X106084Y165835D01*
X105366Y165420D01*
X104780Y164834D01*
X104365Y164116D01*
X104150Y163315D01*
Y162485D01*
X104365Y161684D01*
X104780Y160966D01*
X105366Y160380D01*
X106084Y159965D01*
X106885Y159750D01*
X107715D01*
X108295Y159906D01*
X134605D01*
X134881Y159832D01*
X135130Y159091D01*
X132170Y156130D01*
X131534Y155301D01*
X131134Y154336D01*
X130997Y153300D01*
Y142593D01*
X131134Y141557D01*
X131534Y140592D01*
X132170Y139763D01*
X134513Y137420D01*
X135342Y136784D01*
X136307Y136384D01*
X137343Y136247D01*
X139652D01*
X140814Y135085D01*
X141148D01*
X141236Y134385D01*
X139200Y132348D01*
Y131250D01*
X144200D01*
X149200D01*
Y132348D01*
X147164Y134385D01*
X147252Y135085D01*
X147586D01*
X148748Y136247D01*
X155530D01*
X156566Y136384D01*
X157531Y136784D01*
X158360Y137420D01*
X158728Y137788D01*
X163776D01*
Y135033D01*
X165400D01*
Y137263D01*
X167400D01*
Y135033D01*
X169024D01*
X169097Y134363D01*
Y126517D01*
X168397Y126378D01*
X168249Y126735D01*
X167636Y127349D01*
X166900Y127654D01*
Y125500D01*
Y123346D01*
X167636Y123651D01*
X168249Y124265D01*
X168397Y124622D01*
X169097Y124483D01*
Y116300D01*
X169234Y115264D01*
X169633Y114299D01*
X170270Y113470D01*
X176370Y107370D01*
X177199Y106734D01*
X178164Y106334D01*
X179200Y106197D01*
X180236Y106334D01*
X181201Y106734D01*
X182030Y107370D01*
X182667Y108199D01*
X183066Y109164D01*
X183203Y110200D01*
X183066Y111236D01*
X182667Y112201D01*
X182030Y113030D01*
X178129Y116931D01*
X178397Y117578D01*
X184350D01*
X184893Y117200D01*
X184893Y116878D01*
Y112279D01*
X187861D01*
X190830D01*
Y117200D01*
X188011D01*
X187468Y117578D01*
X187468Y117900D01*
Y124752D01*
X187468Y125452D01*
X187468D01*
Y125452D01*
X187468D01*
Y132626D01*
X187468Y133326D01*
X187468D01*
Y133326D01*
X187468D01*
Y134269D01*
X195097D01*
X209579Y119786D01*
X209880Y119266D01*
X210277Y118869D01*
X210010Y118168D01*
X207546Y118168D01*
X206846Y118168D01*
X200372D01*
X199672Y118168D01*
X198972Y118168D01*
X191798D01*
Y104389D01*
X192692D01*
Y98023D01*
X191306D01*
Y97679D01*
X191125Y97054D01*
X190606Y97054D01*
X188763D01*
Y93200D01*
Y89346D01*
X190606D01*
X191125Y89346D01*
X191306Y88721D01*
Y88377D01*
X192643D01*
Y85477D01*
X188760Y81594D01*
X164500D01*
X163725Y81492D01*
X163003Y81193D01*
X162383Y80717D01*
X121383Y39717D01*
X120907Y39097D01*
X120608Y38375D01*
X120506Y37600D01*
Y29269D01*
X118532D01*
Y26922D01*
X117832Y26735D01*
X117476Y27351D01*
X116551Y28276D01*
X115418Y28930D01*
X114154Y29269D01*
X112846D01*
X111582Y28930D01*
X110449Y28276D01*
X109524Y27351D01*
X108870Y26218D01*
X108862Y26189D01*
X108138D01*
X108130Y26218D01*
X107476Y27351D01*
X106551Y28276D01*
X105418Y28930D01*
X104154Y29269D01*
X102846D01*
X101582Y28930D01*
X100449Y28276D01*
X99524Y27351D01*
X98870Y26218D01*
X98862Y26189D01*
X98138D01*
X98130Y26218D01*
X97476Y27351D01*
X96551Y28276D01*
X95418Y28930D01*
X94154Y29269D01*
X92846D01*
X91582Y28930D01*
X90449Y28276D01*
X89524Y27351D01*
X88870Y26218D01*
X88862Y26189D01*
X88138D01*
X88130Y26218D01*
X87476Y27351D01*
X86551Y28276D01*
X85418Y28930D01*
X84154Y29269D01*
X82846D01*
X81582Y28930D01*
X80449Y28276D01*
X79524Y27351D01*
X78870Y26218D01*
X78531Y24954D01*
Y23646D01*
X78870Y22382D01*
X79524Y21249D01*
X80449Y20324D01*
X81582Y19670D01*
X82846Y19331D01*
X84154D01*
X85418Y19670D01*
X86551Y20324D01*
X87476Y21249D01*
X88130Y22382D01*
X88138Y22411D01*
X88862D01*
X88870Y22382D01*
X89524Y21249D01*
X90449Y20324D01*
X91582Y19670D01*
X92846Y19331D01*
X94154D01*
X95418Y19670D01*
X96551Y20324D01*
X97476Y21249D01*
X98130Y22382D01*
X98138Y22411D01*
X98862D01*
X98870Y22382D01*
X99524Y21249D01*
X100449Y20324D01*
X101582Y19670D01*
X102846Y19331D01*
X104154D01*
X105418Y19670D01*
X106551Y20324D01*
X107476Y21249D01*
X108130Y22382D01*
X108138Y22411D01*
X108862D01*
X108870Y22382D01*
X109524Y21249D01*
X110449Y20324D01*
X111582Y19670D01*
X112846Y19331D01*
X114154D01*
X115418Y19670D01*
X116551Y20324D01*
X117476Y21249D01*
X117832Y21865D01*
X118532Y21678D01*
Y19331D01*
X128469D01*
Y29269D01*
X126494D01*
Y36360D01*
X165740Y75606D01*
X190000D01*
X190775Y75708D01*
X191497Y76007D01*
X192117Y76483D01*
X196534Y80899D01*
X197127Y80503D01*
X196934Y80036D01*
X196797Y79000D01*
X196934Y77964D01*
X197334Y76999D01*
X197970Y76170D01*
X198799Y75533D01*
X199764Y75134D01*
X200800Y74997D01*
X201836Y75134D01*
X202801Y75533D01*
X203630Y76170D01*
X208793Y81333D01*
X209430Y82162D01*
X209829Y83127D01*
X209966Y84163D01*
Y88377D01*
X210843D01*
Y81277D01*
X206306Y76741D01*
X205831Y76121D01*
X205532Y75399D01*
X205430Y74624D01*
Y67116D01*
X204487D01*
Y67116D01*
X203787Y66951D01*
X203650Y67008D01*
Y64854D01*
Y62701D01*
X203787Y62757D01*
X204487Y62290D01*
Y56880D01*
X212361D01*
Y67116D01*
X211418D01*
Y73383D01*
X215954Y77920D01*
X216430Y78540D01*
X216729Y79262D01*
X216831Y80037D01*
Y88377D01*
X218168D01*
Y90206D01*
X219437D01*
Y89608D01*
X224170D01*
Y80704D01*
X216783Y73317D01*
X216307Y72697D01*
X216008Y71975D01*
X215906Y71200D01*
Y54340D01*
X213960Y52394D01*
X198440D01*
X196457Y54377D01*
Y56880D01*
X197400D01*
Y67116D01*
X189526D01*
Y64551D01*
X188903Y64293D01*
X188283Y63817D01*
X183269Y58803D01*
X182673Y59124D01*
X183386Y60844D01*
X183749Y62669D01*
Y64531D01*
X183386Y66356D01*
X182673Y68076D01*
X181639Y69623D01*
X180323Y70939D01*
X178776Y71973D01*
X177056Y72686D01*
X175231Y73049D01*
X173369D01*
X171544Y72686D01*
X169824Y71973D01*
X168277Y70939D01*
X166961Y69623D01*
X165927Y68076D01*
X165214Y66356D01*
X164851Y64531D01*
Y62669D01*
X165214Y60844D01*
X165927Y59124D01*
X166961Y57577D01*
X168277Y56261D01*
X169824Y55227D01*
X171544Y54514D01*
X173369Y54151D01*
X175231D01*
X177056Y54514D01*
X178776Y55227D01*
X179097Y54631D01*
X172043Y47577D01*
X171567Y46957D01*
X171268Y46235D01*
X171166Y45460D01*
Y32624D01*
X170321D01*
Y23176D01*
X177998D01*
Y32624D01*
X177154D01*
Y44220D01*
X189769Y56835D01*
X190469Y56770D01*
Y53137D01*
X190571Y52362D01*
X190870Y51640D01*
X191346Y51020D01*
X195083Y47283D01*
X195703Y46807D01*
X196002Y46683D01*
X196425Y46508D01*
X197200Y46406D01*
X215200D01*
X215975Y46508D01*
X216697Y46807D01*
X217317Y47283D01*
X221017Y50983D01*
X221493Y51603D01*
X221617Y51902D01*
X221792Y52325D01*
X221894Y53100D01*
Y69960D01*
X229281Y77347D01*
X229757Y77967D01*
X230056Y78689D01*
X230158Y79464D01*
Y89608D01*
X230363D01*
Y96793D01*
X225630D01*
Y97564D01*
X225528Y98339D01*
X225229Y99061D01*
X224753Y99681D01*
X221417Y103017D01*
X220797Y103493D01*
X220286Y103705D01*
X220463Y104389D01*
X222594D01*
X223294Y104389D01*
Y104389D01*
X223294D01*
Y104389D01*
X230469D01*
X231169Y104389D01*
Y104389D01*
X231169D01*
Y104389D01*
X232048D01*
Y97460D01*
X231956Y97115D01*
Y96285D01*
X232171Y95484D01*
X232585Y94766D01*
X233172Y94180D01*
X233890Y93765D01*
X234691Y93550D01*
X235520D01*
X236017Y93169D01*
Y77689D01*
X236119Y76914D01*
X236418Y76192D01*
X236894Y75572D01*
X240303Y72163D01*
Y67116D01*
X239360D01*
Y56880D01*
X247234D01*
Y67116D01*
X246291D01*
Y73403D01*
X246189Y74178D01*
X246014Y74601D01*
X245890Y74900D01*
X245414Y75520D01*
X242005Y78929D01*
Y93125D01*
X242561Y93552D01*
X242565Y93550D01*
X243394D01*
X244195Y93765D01*
X244913Y94180D01*
X245601Y93877D01*
Y81500D01*
X245723Y80568D01*
X246083Y79700D01*
X246655Y78955D01*
X247400Y78383D01*
X248268Y78023D01*
X249200Y77901D01*
X262009D01*
X273801Y66109D01*
Y36391D01*
X241009Y3599D01*
X36491D01*
X3599Y36491D01*
Y272209D01*
X19845Y288455D01*
X20417Y289200D01*
X20777Y290068D01*
X20899Y291000D01*
Y348809D01*
X36491Y364401D01*
X241009Y364401D01*
X273901Y331509D01*
D02*
G37*
%LPC*%
G36*
X144354Y360068D02*
X143046D01*
X141782Y359730D01*
X140649Y359076D01*
X139724Y358151D01*
X139070Y357018D01*
X139062Y356989D01*
X138338D01*
X138330Y357018D01*
X137676Y358151D01*
X136751Y359076D01*
X135618Y359730D01*
X134354Y360068D01*
X133046D01*
X131782Y359730D01*
X130649Y359076D01*
X129724Y358151D01*
X129070Y357018D01*
X129062Y356989D01*
X128338D01*
X128330Y357018D01*
X127676Y358151D01*
X126751Y359076D01*
X125618Y359730D01*
X124354Y360068D01*
X123046D01*
X121782Y359730D01*
X120649Y359076D01*
X119724Y358151D01*
X119070Y357018D01*
X118731Y355754D01*
Y354446D01*
X119070Y353182D01*
X119724Y352049D01*
X120649Y351124D01*
X121782Y350470D01*
X123046Y350132D01*
X124354D01*
X125618Y350470D01*
X126751Y351124D01*
X127676Y352049D01*
X128330Y353182D01*
X128338Y353211D01*
X129062D01*
X129070Y353182D01*
X129724Y352049D01*
X130649Y351124D01*
X131782Y350470D01*
X133046Y350132D01*
X134354D01*
X135618Y350470D01*
X136751Y351124D01*
X137676Y352049D01*
X138330Y353182D01*
X138338Y353211D01*
X139062D01*
X139070Y353182D01*
X139724Y352049D01*
X140649Y351124D01*
X141782Y350470D01*
X143046Y350132D01*
X144354D01*
X145618Y350470D01*
X146751Y351124D01*
X147676Y352049D01*
X148330Y353182D01*
X148669Y354446D01*
Y355754D01*
X148330Y357018D01*
X147676Y358151D01*
X146751Y359076D01*
X145618Y359730D01*
X144354Y360068D01*
D02*
G37*
G36*
X157700Y359100D02*
X154700D01*
Y356100D01*
X157700D01*
Y359100D01*
D02*
G37*
G36*
X152700D02*
X149700D01*
Y356100D01*
X152700D01*
Y359100D01*
D02*
G37*
G36*
X157700Y354100D02*
X154700D01*
Y351100D01*
X157700D01*
Y354100D01*
D02*
G37*
G36*
X152700D02*
X149700D01*
Y351100D01*
X152700D01*
Y354100D01*
D02*
G37*
G36*
X231209Y342599D02*
Y340945D01*
X232862D01*
X232558Y341681D01*
X231944Y342294D01*
X231209Y342599D01*
D02*
G37*
G36*
X230209D02*
X229473Y342294D01*
X228860Y341681D01*
X228555Y340945D01*
X230209D01*
Y342599D01*
D02*
G37*
G36*
X203650D02*
Y340945D01*
X205303D01*
X204999Y341681D01*
X204385Y342294D01*
X203650Y342599D01*
D02*
G37*
G36*
X202650D02*
X201914Y342294D01*
X201301Y341681D01*
X200996Y340945D01*
X202650D01*
Y342599D01*
D02*
G37*
G36*
X139500D02*
Y340945D01*
X141154D01*
X140849Y341681D01*
X140235Y342294D01*
X139500Y342599D01*
D02*
G37*
G36*
X138500D02*
X137765Y342294D01*
X137151Y341681D01*
X136846Y340945D01*
X138500D01*
Y342599D01*
D02*
G37*
G36*
X93413D02*
Y340945D01*
X95067D01*
X94762Y341681D01*
X94149Y342294D01*
X93413Y342599D01*
D02*
G37*
G36*
X92413D02*
X91678Y342294D01*
X91064Y341681D01*
X90760Y340945D01*
X92413D01*
Y342599D01*
D02*
G37*
G36*
X65854D02*
Y340945D01*
X67508D01*
X67203Y341681D01*
X66590Y342294D01*
X65854Y342599D01*
D02*
G37*
G36*
X64854D02*
X64119Y342294D01*
X63505Y341681D01*
X63201Y340945D01*
X64854D01*
Y342599D01*
D02*
G37*
G36*
X38295D02*
Y340945D01*
X39949D01*
X39644Y341681D01*
X39031Y342294D01*
X38295Y342599D01*
D02*
G37*
G36*
X37295D02*
X36560Y342294D01*
X35946Y341681D01*
X35642Y340945D01*
X37295D01*
Y342599D01*
D02*
G37*
G36*
X232862Y339945D02*
X231209D01*
Y338291D01*
X231944Y338596D01*
X232558Y339210D01*
X232862Y339945D01*
D02*
G37*
G36*
X230209D02*
X228555D01*
X228860Y339210D01*
X229473Y338596D01*
X230209Y338291D01*
Y339945D01*
D02*
G37*
G36*
X205303D02*
X203650D01*
Y338291D01*
X204385Y338596D01*
X204999Y339210D01*
X205303Y339945D01*
D02*
G37*
G36*
X202650D02*
X200996D01*
X201301Y339210D01*
X201914Y338596D01*
X202650Y338291D01*
Y339945D01*
D02*
G37*
G36*
X141154D02*
X139500D01*
Y338291D01*
X140235Y338596D01*
X140849Y339210D01*
X141154Y339945D01*
D02*
G37*
G36*
X138500D02*
X136846D01*
X137151Y339210D01*
X137765Y338596D01*
X138500Y338291D01*
Y339945D01*
D02*
G37*
G36*
X95067D02*
X93413D01*
Y338291D01*
X94149Y338596D01*
X94762Y339210D01*
X95067Y339945D01*
D02*
G37*
G36*
X92413D02*
X90760D01*
X91064Y339210D01*
X91678Y338596D01*
X92413Y338291D01*
Y339945D01*
D02*
G37*
G36*
X67508D02*
X65854D01*
Y338291D01*
X66590Y338596D01*
X67203Y339210D01*
X67508Y339945D01*
D02*
G37*
G36*
X64854D02*
X63201D01*
X63505Y339210D01*
X64119Y338596D01*
X64854Y338291D01*
Y339945D01*
D02*
G37*
G36*
X39949D02*
X38295D01*
Y338291D01*
X39031Y338596D01*
X39644Y339210D01*
X39949Y339945D01*
D02*
G37*
G36*
X37295D02*
X35642D01*
X35946Y339210D01*
X36560Y338596D01*
X37295Y338291D01*
Y339945D01*
D02*
G37*
G36*
X107669Y335472D02*
Y332648D01*
X110494D01*
X110353Y333174D01*
X109832Y334075D01*
X109096Y334811D01*
X108195Y335331D01*
X107669Y335472D01*
D02*
G37*
G36*
X105669Y335472D02*
X105144Y335331D01*
X104242Y334811D01*
X103506Y334075D01*
X102986Y333174D01*
X102845Y332648D01*
X105669D01*
Y335472D01*
D02*
G37*
G36*
Y330648D02*
X102845D01*
X102986Y330122D01*
X103506Y329221D01*
X104242Y328485D01*
X105144Y327965D01*
X105669Y327824D01*
Y330648D01*
D02*
G37*
G36*
X110494D02*
X107669D01*
Y327824D01*
X108195Y327965D01*
X109096Y328485D01*
X109832Y329221D01*
X110353Y330122D01*
X110494Y330648D01*
D02*
G37*
G36*
X175828Y338793D02*
X165592D01*
Y325407D01*
X167716D01*
Y317679D01*
X156603D01*
Y321977D01*
X160032Y325407D01*
X164608D01*
Y338793D01*
X154372D01*
Y331068D01*
X149770Y326466D01*
X149134Y325637D01*
X148734Y324671D01*
X148597Y323635D01*
Y299936D01*
X147897Y299698D01*
X147730Y299915D01*
X143883Y303763D01*
X143054Y304399D01*
X142088Y304799D01*
X141052Y304935D01*
X140131D01*
Y304988D01*
X137406D01*
X133578Y308815D01*
X132749Y309452D01*
X131784Y309851D01*
X130748Y309988D01*
X128126D01*
Y311484D01*
X118940D01*
Y318258D01*
X127409Y326727D01*
X131276D01*
Y336569D01*
X121433D01*
Y332072D01*
X112107Y322746D01*
X111470Y321917D01*
X111071Y320952D01*
X110934Y319916D01*
Y311484D01*
X109231D01*
X108763Y312184D01*
X108847Y312386D01*
X104539D01*
X104623Y312184D01*
X104155Y311484D01*
X101748D01*
Y301248D01*
X128126D01*
Y301982D01*
X129090D01*
X131469Y299603D01*
Y297508D01*
X133662D01*
X133737Y297420D01*
X133413Y296720D01*
X131469D01*
Y289240D01*
X131797D01*
Y282000D01*
X131934Y280964D01*
X132334Y279999D01*
X132970Y279170D01*
X133799Y278534D01*
X134764Y278134D01*
X135800Y277997D01*
X136836Y278134D01*
X137801Y278534D01*
X138630Y279170D01*
X139267Y279999D01*
X139666Y280964D01*
X139803Y282000D01*
Y289240D01*
X140131D01*
Y294509D01*
X140831Y294883D01*
X140897Y294839D01*
Y279143D01*
X135457Y273703D01*
X117201D01*
X116165Y273566D01*
X115504Y273292D01*
X114002D01*
Y272324D01*
X113673D01*
Y271554D01*
X113334Y270736D01*
X113198Y269700D01*
X112673D01*
Y268700D01*
X110443D01*
Y267076D01*
X113198D01*
Y260661D01*
X109811Y257274D01*
X103189D01*
Y244361D01*
X115472D01*
Y251613D01*
X120031Y256172D01*
X120667Y257001D01*
X121067Y257967D01*
X121203Y259003D01*
Y265697D01*
X137115D01*
X138151Y265834D01*
X139116Y266233D01*
X139945Y266870D01*
X147730Y274655D01*
X147897Y274872D01*
X148597Y274635D01*
Y264800D01*
X148734Y263764D01*
X149134Y262799D01*
X149770Y261970D01*
X158714Y253025D01*
X159544Y252389D01*
X160509Y251989D01*
X161545Y251852D01*
X174781D01*
X177542Y249092D01*
Y243729D01*
X190258D01*
Y254753D01*
X183203D01*
X179270Y258685D01*
X178441Y259322D01*
X177475Y259721D01*
X176439Y259858D01*
X163203D01*
X156603Y266458D01*
Y281500D01*
Y302890D01*
X156844Y303490D01*
X157303Y303490D01*
X159600D01*
Y306360D01*
Y309230D01*
X157612D01*
X157248Y309839D01*
X157240Y309930D01*
X157288Y310002D01*
X174324D01*
Y317679D01*
X173704D01*
Y325407D01*
X175828D01*
Y338793D01*
D02*
G37*
G36*
X144200Y315040D02*
Y313386D01*
X145854D01*
X145549Y314121D01*
X144936Y314735D01*
X144200Y315040D01*
D02*
G37*
G36*
X143200D02*
X142464Y314735D01*
X141851Y314121D01*
X141546Y313386D01*
X143200D01*
Y315040D01*
D02*
G37*
G36*
X107193D02*
Y313386D01*
X108847D01*
X108542Y314121D01*
X107928Y314735D01*
X107193Y315040D01*
D02*
G37*
G36*
X106193D02*
X105457Y314735D01*
X104844Y314121D01*
X104539Y313386D01*
X106193D01*
Y315040D01*
D02*
G37*
G36*
X79764Y323115D02*
X78364D01*
X77012Y322753D01*
X75800Y322053D01*
X74811Y321063D01*
X74111Y319851D01*
X73749Y318500D01*
Y317100D01*
X74111Y315749D01*
X74811Y314536D01*
X75800Y313547D01*
X77012Y312847D01*
X78364Y312485D01*
X79764D01*
X81115Y312847D01*
X82327Y313547D01*
X83317Y314536D01*
X84017Y315749D01*
X84379Y317100D01*
Y318500D01*
X84017Y319851D01*
X83317Y321063D01*
X82327Y322053D01*
X81115Y322753D01*
X79764Y323115D01*
D02*
G37*
G36*
X145854Y312386D02*
X144200D01*
Y310732D01*
X144936Y311037D01*
X145549Y311650D01*
X145854Y312386D01*
D02*
G37*
G36*
X143200D02*
X141546D01*
X141851Y311650D01*
X142464Y311037D01*
X143200Y310732D01*
Y312386D01*
D02*
G37*
G36*
X173356Y309230D02*
X170600D01*
Y307360D01*
X173356D01*
Y309230D01*
D02*
G37*
G36*
X161600D02*
Y307360D01*
X164356D01*
Y309230D01*
X161600D01*
D02*
G37*
G36*
X168600D02*
X165844D01*
Y307360D01*
X168600D01*
Y309230D01*
D02*
G37*
G36*
X173356Y305360D02*
X170600D01*
Y303490D01*
X173356D01*
Y305360D01*
D02*
G37*
G36*
X168600D02*
X165844D01*
Y303490D01*
X168600D01*
Y305360D01*
D02*
G37*
G36*
X164356D02*
X161600D01*
Y303490D01*
X164356D01*
Y305360D01*
D02*
G37*
G36*
X258768Y287480D02*
Y285827D01*
X260421D01*
X260117Y286562D01*
X259503Y287176D01*
X258768Y287480D01*
D02*
G37*
G36*
X257768D02*
X257032Y287176D01*
X256419Y286562D01*
X256114Y285827D01*
X257768D01*
Y287480D01*
D02*
G37*
G36*
X203650D02*
Y285827D01*
X205303D01*
X204999Y286562D01*
X204385Y287176D01*
X203650Y287480D01*
D02*
G37*
G36*
X202650D02*
X201914Y287176D01*
X201301Y286562D01*
X200996Y285827D01*
X202650D01*
Y287480D01*
D02*
G37*
G36*
X170600D02*
Y285827D01*
X172254D01*
X171949Y286562D01*
X171335Y287176D01*
X170600Y287480D01*
D02*
G37*
G36*
X169600D02*
X168865Y287176D01*
X168251Y286562D01*
X167946Y285827D01*
X169600D01*
Y287480D01*
D02*
G37*
G36*
X65854D02*
Y285827D01*
X67508D01*
X67203Y286562D01*
X66590Y287176D01*
X65854Y287480D01*
D02*
G37*
G36*
X64854D02*
X64119Y287176D01*
X63505Y286562D01*
X63201Y285827D01*
X64854D01*
Y287480D01*
D02*
G37*
G36*
X38295D02*
Y285827D01*
X39949D01*
X39644Y286562D01*
X39031Y287176D01*
X38295Y287480D01*
D02*
G37*
G36*
X37295D02*
X36560Y287176D01*
X35946Y286562D01*
X35642Y285827D01*
X37295D01*
Y287480D01*
D02*
G37*
G36*
X260421Y284827D02*
X258768D01*
Y283173D01*
X259503Y283478D01*
X260117Y284091D01*
X260421Y284827D01*
D02*
G37*
G36*
X205303D02*
X203650D01*
Y283173D01*
X204385Y283478D01*
X204999Y284091D01*
X205303Y284827D01*
D02*
G37*
G36*
X202650D02*
X200996D01*
X201301Y284091D01*
X201914Y283478D01*
X202650Y283173D01*
Y284827D01*
D02*
G37*
G36*
X172254D02*
X170600D01*
Y283173D01*
X171335Y283478D01*
X171949Y284091D01*
X172254Y284827D01*
D02*
G37*
G36*
X169600D02*
X167946D01*
X168251Y284091D01*
X168865Y283478D01*
X169600Y283173D01*
Y284827D01*
D02*
G37*
G36*
X67508D02*
X65854D01*
Y283173D01*
X66590Y283478D01*
X67203Y284091D01*
X67508Y284827D01*
D02*
G37*
G36*
X64854D02*
X63201D01*
X63505Y284091D01*
X64119Y283478D01*
X64854Y283173D01*
Y284827D01*
D02*
G37*
G36*
X39949D02*
X38295D01*
Y283173D01*
X39031Y283478D01*
X39644Y284091D01*
X39949Y284827D01*
D02*
G37*
G36*
X37295D02*
X35642D01*
X35946Y284091D01*
X36560Y283478D01*
X37295Y283173D01*
Y284827D01*
D02*
G37*
G36*
X128126Y292980D02*
X101748D01*
Y291864D01*
X99292D01*
X98256Y291728D01*
X97290Y291328D01*
X96461Y290692D01*
X81933Y276164D01*
X77751D01*
Y275245D01*
X70416D01*
X65630Y280030D01*
X64801Y280666D01*
X63836Y281066D01*
X62800Y281203D01*
X40664D01*
X39628Y281066D01*
X38662Y280666D01*
X37833Y280030D01*
X28825Y271022D01*
X18738D01*
Y255274D01*
X34486D01*
Y265361D01*
X42322Y273197D01*
X61142D01*
X65927Y268412D01*
X66756Y267776D01*
X67721Y267376D01*
X68757Y267240D01*
X77751D01*
Y266321D01*
X87594D01*
Y270503D01*
X100950Y283859D01*
X101748D01*
Y282744D01*
X128126D01*
Y292980D01*
D02*
G37*
G36*
X246985Y276479D02*
X237536D01*
Y275634D01*
X225331D01*
Y275790D01*
X217458D01*
Y269491D01*
X225331D01*
Y269646D01*
X237536D01*
Y268802D01*
Y261321D01*
X239266D01*
Y238653D01*
X239111Y238073D01*
Y237244D01*
X239326Y236443D01*
X239740Y235725D01*
X240327Y235138D01*
X241045Y234724D01*
X241846Y234509D01*
X242675D01*
X243476Y234724D01*
X244195Y235138D01*
X244781Y235725D01*
X245196Y236443D01*
X245410Y237244D01*
Y238073D01*
X245255Y238653D01*
Y261321D01*
X246985D01*
Y268802D01*
Y276479D01*
D02*
G37*
G36*
X111673Y272324D02*
X110443D01*
Y270700D01*
X111673D01*
Y272324D01*
D02*
G37*
G36*
X224363Y267341D02*
X222394D01*
Y266160D01*
X224363D01*
Y267341D01*
D02*
G37*
G36*
X220394D02*
X218426D01*
Y266160D01*
X220394D01*
Y267341D01*
D02*
G37*
G36*
X224363Y264160D02*
X222394D01*
Y262979D01*
X224363D01*
Y264160D01*
D02*
G37*
G36*
X220394D02*
X218426D01*
Y262979D01*
X220394D01*
Y264160D01*
D02*
G37*
G36*
X83672Y265224D02*
Y262400D01*
X86497D01*
X86356Y262926D01*
X85835Y263827D01*
X85099Y264563D01*
X84198Y265083D01*
X83672Y265224D01*
D02*
G37*
G36*
X81672D02*
X81147Y265083D01*
X80245Y264563D01*
X79509Y263827D01*
X78989Y262926D01*
X78848Y262400D01*
X81672D01*
Y265224D01*
D02*
G37*
G36*
X231209Y259922D02*
Y258268D01*
X232862D01*
X232558Y259003D01*
X231944Y259617D01*
X231209Y259922D01*
D02*
G37*
G36*
X230209D02*
X229473Y259617D01*
X228860Y259003D01*
X228555Y258268D01*
X230209D01*
Y259922D01*
D02*
G37*
G36*
X187125D02*
Y258268D01*
X188778D01*
X188474Y259003D01*
X187860Y259617D01*
X187125Y259922D01*
D02*
G37*
G36*
X186125D02*
X185389Y259617D01*
X184776Y259003D01*
X184471Y258268D01*
X186125D01*
Y259922D01*
D02*
G37*
G36*
X134752D02*
Y258268D01*
X136406D01*
X136101Y259003D01*
X135487Y259617D01*
X134752Y259922D01*
D02*
G37*
G36*
X133752D02*
X133017Y259617D01*
X132403Y259003D01*
X132098Y258268D01*
X133752D01*
Y259922D01*
D02*
G37*
G36*
X81672Y260400D02*
X78848D01*
X78989Y259874D01*
X79509Y258973D01*
X80245Y258237D01*
X81147Y257717D01*
X81672Y257576D01*
Y260400D01*
D02*
G37*
G36*
X86497D02*
X83672D01*
Y257576D01*
X84198Y257717D01*
X85099Y258237D01*
X85835Y258973D01*
X86356Y259874D01*
X86497Y260400D01*
D02*
G37*
G36*
X232862Y257268D02*
X231209D01*
Y255614D01*
X231944Y255919D01*
X232558Y256532D01*
X232862Y257268D01*
D02*
G37*
G36*
X230209D02*
X228555D01*
X228860Y256532D01*
X229473Y255919D01*
X230209Y255614D01*
Y257268D01*
D02*
G37*
G36*
X188778D02*
X187125D01*
Y255614D01*
X187860Y255919D01*
X188474Y256532D01*
X188778Y257268D01*
D02*
G37*
G36*
X186125D02*
X184471D01*
X184776Y256532D01*
X185389Y255919D01*
X186125Y255614D01*
Y257268D01*
D02*
G37*
G36*
X136406D02*
X134752D01*
Y255614D01*
X135487Y255919D01*
X136101Y256532D01*
X136406Y257268D01*
D02*
G37*
G36*
X133752D02*
X132098D01*
X132403Y256532D01*
X133017Y255919D01*
X133752Y255614D01*
Y257268D01*
D02*
G37*
G36*
X33517Y254109D02*
X27612D01*
Y250300D01*
X33517D01*
Y254109D01*
D02*
G37*
G36*
X25612D02*
X19706D01*
Y250300D01*
X25612D01*
Y254109D01*
D02*
G37*
G36*
X49031Y268949D02*
X47169D01*
X45344Y268586D01*
X43624Y267873D01*
X42077Y266839D01*
X40761Y265523D01*
X39727Y263976D01*
X39014Y262256D01*
X38651Y260431D01*
Y258569D01*
X39014Y256744D01*
X39727Y255024D01*
X40761Y253477D01*
X42077Y252161D01*
X43624Y251127D01*
X45344Y250414D01*
X47169Y250051D01*
X49031D01*
X50856Y250414D01*
X52576Y251127D01*
X54123Y252161D01*
X55439Y253477D01*
X56473Y255024D01*
X57186Y256744D01*
X57549Y258569D01*
Y260431D01*
X57186Y262256D01*
X56473Y263976D01*
X55439Y265523D01*
X54123Y266839D01*
X52576Y267873D01*
X50856Y268586D01*
X49031Y268949D01*
D02*
G37*
G36*
X172666Y240540D02*
X171006D01*
Y238745D01*
X173884D01*
Y239322D01*
X173791Y239788D01*
X173527Y240183D01*
X173132Y240447D01*
X172666Y240540D01*
D02*
G37*
G36*
X189290Y242288D02*
X184900D01*
Y238745D01*
X189290D01*
Y242288D01*
D02*
G37*
G36*
X182900D02*
X178510D01*
Y238745D01*
X182900D01*
Y242288D01*
D02*
G37*
G36*
X169006Y240540D02*
X167347D01*
X166881Y240447D01*
X166485Y240183D01*
X166221Y239788D01*
X166129Y239322D01*
Y238745D01*
X169006D01*
Y240540D01*
D02*
G37*
G36*
X92747Y240520D02*
Y237900D01*
X95368D01*
X95247Y238350D01*
X94753Y239206D01*
X94054Y239906D01*
X93197Y240400D01*
X92747Y240520D01*
D02*
G37*
G36*
X90747D02*
X90298Y240400D01*
X89441Y239906D01*
X88742Y239206D01*
X88248Y238350D01*
X88127Y237900D01*
X90747D01*
Y240520D01*
D02*
G37*
G36*
X212839Y238091D02*
Y236438D01*
X214493D01*
X214188Y237173D01*
X213575Y237787D01*
X212839Y238091D01*
D02*
G37*
G36*
X211839D02*
X211104Y237787D01*
X210490Y237173D01*
X210186Y236438D01*
X211839D01*
Y238091D01*
D02*
G37*
G36*
X173884Y236745D02*
X171006D01*
Y234950D01*
X172666D01*
X173132Y235043D01*
X173527Y235307D01*
X173791Y235702D01*
X173884Y236168D01*
Y236745D01*
D02*
G37*
G36*
X169006D02*
X166129D01*
Y236168D01*
X166221Y235702D01*
X166485Y235307D01*
X166881Y235043D01*
X167347Y234950D01*
X169006D01*
Y236745D01*
D02*
G37*
G36*
X114504Y239258D02*
X110330D01*
Y234770D01*
X114504D01*
Y239258D01*
D02*
G37*
G36*
X108330D02*
X104157D01*
Y234770D01*
X108330D01*
Y239258D01*
D02*
G37*
G36*
X214493Y235438D02*
X212839D01*
Y233784D01*
X213575Y234089D01*
X214188Y234702D01*
X214493Y235438D01*
D02*
G37*
G36*
X211839D02*
X210186D01*
X210490Y234702D01*
X211104Y234089D01*
X211839Y233784D01*
Y235438D01*
D02*
G37*
G36*
X95368Y235900D02*
X92747D01*
Y233280D01*
X93197Y233400D01*
X94054Y233894D01*
X94753Y234594D01*
X95247Y235450D01*
X95368Y235900D01*
D02*
G37*
G36*
X90747D02*
X88127D01*
X88248Y235450D01*
X88742Y234594D01*
X89441Y233894D01*
X90298Y233400D01*
X90747Y233280D01*
Y235900D01*
D02*
G37*
G36*
X189290Y236745D02*
X184900D01*
Y233202D01*
X189290D01*
Y236745D01*
D02*
G37*
G36*
X182900D02*
X178510D01*
Y233202D01*
X182900D01*
Y236745D01*
D02*
G37*
G36*
X114504Y232770D02*
X110330D01*
Y228282D01*
X114504D01*
Y232770D01*
D02*
G37*
G36*
X108330D02*
X104157D01*
Y228282D01*
X108330D01*
Y232770D01*
D02*
G37*
G36*
X174550Y228090D02*
X171006D01*
Y223700D01*
X174550D01*
Y228090D01*
D02*
G37*
G36*
X169006D02*
X165463D01*
Y223700D01*
X169006D01*
Y228090D01*
D02*
G37*
G36*
X174550Y221700D02*
X171006D01*
Y217310D01*
X174550D01*
Y221700D01*
D02*
G37*
G36*
X169006D02*
X165463D01*
Y217310D01*
X169006D01*
Y221700D01*
D02*
G37*
G36*
X260800Y218554D02*
Y216900D01*
X262454D01*
X262149Y217635D01*
X261536Y218249D01*
X260800Y218554D01*
D02*
G37*
G36*
X259800D02*
X259065Y218249D01*
X258451Y217635D01*
X258146Y216900D01*
X259800D01*
Y218554D01*
D02*
G37*
G36*
X262454Y215900D02*
X260800D01*
Y214246D01*
X261536Y214551D01*
X262149Y215164D01*
X262454Y215900D01*
D02*
G37*
G36*
X259800D02*
X258146D01*
X258451Y215164D01*
X259065Y214551D01*
X259800Y214246D01*
Y215900D01*
D02*
G37*
G36*
X170600Y204803D02*
Y203150D01*
X172254D01*
X171949Y203885D01*
X171335Y204499D01*
X170600Y204803D01*
D02*
G37*
G36*
X169600D02*
X168865Y204499D01*
X168251Y203885D01*
X167946Y203150D01*
X169600D01*
Y204803D01*
D02*
G37*
G36*
X172254Y202150D02*
X170600D01*
Y200496D01*
X171335Y200801D01*
X171949Y201414D01*
X172254Y202150D01*
D02*
G37*
G36*
X169600D02*
X167946D01*
X168251Y201414D01*
X168865Y200801D01*
X169600Y200496D01*
Y202150D01*
D02*
G37*
G36*
X185831Y219149D02*
X183969D01*
X182144Y218786D01*
X180424Y218073D01*
X178877Y217039D01*
X177561Y215723D01*
X176527Y214176D01*
X175814Y212456D01*
X175451Y210631D01*
Y208769D01*
X175814Y206944D01*
X176527Y205224D01*
X177561Y203677D01*
X178877Y202361D01*
X180424Y201327D01*
X182144Y200614D01*
X183969Y200251D01*
X185831D01*
X187656Y200614D01*
X189376Y201327D01*
X190923Y202361D01*
X192239Y203677D01*
X193273Y205224D01*
X193986Y206944D01*
X194349Y208769D01*
Y210631D01*
X193986Y212456D01*
X193273Y214176D01*
X192239Y215723D01*
X190923Y217039D01*
X189376Y218073D01*
X187656Y218786D01*
X185831Y219149D01*
D02*
G37*
G36*
X85251Y197411D02*
X83954Y197241D01*
X82746Y196740D01*
X81708Y195944D01*
X80911Y194906D01*
X80411Y193697D01*
X80240Y192400D01*
Y176367D01*
X70488D01*
Y162587D01*
X100015D01*
Y176367D01*
X90263D01*
Y192400D01*
X90092Y193697D01*
X89591Y194906D01*
X88795Y195944D01*
X87757Y196740D01*
X86549Y197241D01*
X85251Y197411D01*
D02*
G37*
G36*
X54851Y323115D02*
X44221D01*
Y312485D01*
X45661D01*
X45951Y311785D01*
X6383Y272217D01*
X5907Y271597D01*
X5608Y270875D01*
X5506Y270100D01*
Y246500D01*
X4600D01*
Y163900D01*
X18738Y163900D01*
Y160786D01*
X34486D01*
Y163648D01*
X41826D01*
X43123Y163819D01*
X43318Y163900D01*
X60800Y163900D01*
Y180546D01*
X88795Y208541D01*
X89591Y209579D01*
X90092Y210788D01*
X90263Y212085D01*
X90092Y213382D01*
X89591Y214591D01*
X88795Y215629D01*
X87757Y216425D01*
X86549Y216926D01*
X85251Y217096D01*
X83954Y216926D01*
X82746Y216425D01*
X81708Y215629D01*
X61447Y195368D01*
X60800Y195635D01*
Y210985D01*
X60975Y211008D01*
X61697Y211307D01*
X62317Y211783D01*
X74180Y223645D01*
X74655Y224265D01*
X74954Y224988D01*
X75057Y225762D01*
Y233213D01*
X75843Y233999D01*
X76465Y235076D01*
X76787Y236278D01*
Y237522D01*
X76465Y238723D01*
X75843Y239801D01*
X74963Y240681D01*
X73886Y241302D01*
X72684Y241624D01*
X71441D01*
X70239Y241302D01*
X69162Y240681D01*
X68282Y239801D01*
X67660Y238723D01*
X67338Y237522D01*
Y236278D01*
X67660Y235076D01*
X68282Y233999D01*
X69068Y233213D01*
Y227003D01*
X61447Y219381D01*
X60800Y219649D01*
Y232700D01*
X47000Y246500D01*
X33517D01*
Y248300D01*
X26612D01*
X19706D01*
Y246500D01*
X11494D01*
Y268860D01*
X51653Y309019D01*
X52129Y309639D01*
X52428Y310361D01*
X52530Y311136D01*
Y312485D01*
X54851D01*
Y323115D01*
D02*
G37*
G36*
X173600Y158454D02*
Y156800D01*
X175254D01*
X174949Y157536D01*
X174336Y158149D01*
X173600Y158454D01*
D02*
G37*
G36*
X175254Y155800D02*
X173600D01*
Y154146D01*
X174336Y154451D01*
X174949Y155064D01*
X175254Y155800D01*
D02*
G37*
G36*
X170266Y153383D02*
X167400D01*
Y150913D01*
X170266D01*
Y153383D01*
D02*
G37*
G36*
X165400D02*
X162533D01*
Y150913D01*
X165400D01*
Y153383D01*
D02*
G37*
G36*
X46654Y150892D02*
X45510D01*
X44388Y150669D01*
X43332Y150231D01*
X42380Y149596D01*
X41572Y148787D01*
X40936Y147836D01*
X40498Y146779D01*
X40275Y145657D01*
Y144513D01*
X40498Y143391D01*
X40936Y142334D01*
X41572Y141383D01*
X42380Y140574D01*
X43332Y139939D01*
X44388Y139501D01*
X45510Y139278D01*
X46654D01*
X47776Y139501D01*
X48833Y139939D01*
X49784Y140574D01*
X50593Y141383D01*
X51228Y142334D01*
X51666Y143391D01*
X51889Y144513D01*
Y145657D01*
X51666Y146779D01*
X51228Y147836D01*
X50593Y148787D01*
X49784Y149596D01*
X48833Y150231D01*
X47776Y150669D01*
X46654Y150892D01*
D02*
G37*
G36*
X165900Y127654D02*
X165164Y127349D01*
X164551Y126735D01*
X164246Y126000D01*
X165900D01*
Y127654D01*
D02*
G37*
G36*
Y125000D02*
X164246D01*
X164551Y124265D01*
X165164Y123651D01*
X165900Y123346D01*
Y125000D01*
D02*
G37*
G36*
X190830Y110279D02*
X188861D01*
Y105358D01*
X190830D01*
Y110279D01*
D02*
G37*
G36*
X186861D02*
X184893D01*
Y105358D01*
X186861D01*
Y110279D01*
D02*
G37*
G36*
X100015Y111013D02*
X70488D01*
Y109134D01*
X61139D01*
X59842Y108963D01*
X58633Y108463D01*
X57595Y107666D01*
X51673Y101744D01*
X50876Y100706D01*
X50375Y99497D01*
X50205Y98200D01*
X50375Y96903D01*
X50876Y95694D01*
X51673Y94656D01*
X52710Y93860D01*
X53919Y93359D01*
X55216Y93189D01*
X56513Y93359D01*
X57722Y93860D01*
X58760Y94656D01*
X63215Y99111D01*
X70488D01*
Y97233D01*
X100015D01*
Y111013D01*
D02*
G37*
G36*
X149200Y129250D02*
X144200D01*
X139200D01*
Y128152D01*
X141236Y126115D01*
X141148Y125415D01*
X140814D01*
X138232Y122833D01*
Y117667D01*
X140649Y115250D01*
X138232Y112833D01*
Y107667D01*
X140649Y105250D01*
X138232Y102833D01*
Y97667D01*
X140814Y95085D01*
X147586D01*
X150169Y97667D01*
Y102833D01*
X147751Y105250D01*
X150169Y107667D01*
Y112833D01*
X147751Y115250D01*
X150169Y117667D01*
Y122833D01*
X147586Y125415D01*
X147252D01*
X147164Y126115D01*
X149200Y128152D01*
Y129250D01*
D02*
G37*
G36*
X186763Y97054D02*
X184401D01*
Y94200D01*
X186763D01*
Y97054D01*
D02*
G37*
G36*
X46654Y131207D02*
X45510D01*
X44388Y130984D01*
X43332Y130546D01*
X42380Y129911D01*
X41572Y129102D01*
X40936Y128151D01*
X40498Y127094D01*
X40451Y126856D01*
X31673Y118077D01*
X30876Y117040D01*
X30375Y115831D01*
X30205Y114534D01*
Y98200D01*
X30375Y96903D01*
X30876Y95694D01*
X31673Y94656D01*
X32710Y93860D01*
X33919Y93359D01*
X35216Y93189D01*
X36513Y93359D01*
X37722Y93860D01*
X38760Y94656D01*
X39556Y95694D01*
X40057Y96903D01*
X40227Y98200D01*
Y112458D01*
X47538Y119769D01*
X47776Y119816D01*
X48833Y120254D01*
X49784Y120889D01*
X50593Y121698D01*
X51228Y122649D01*
X51666Y123706D01*
X51889Y124828D01*
Y125972D01*
X51666Y127094D01*
X51228Y128151D01*
X50593Y129102D01*
X49784Y129911D01*
X48833Y130546D01*
X47776Y130984D01*
X46654Y131207D01*
D02*
G37*
G36*
X186763Y92200D02*
X184401D01*
Y89346D01*
X186763D01*
Y92200D01*
D02*
G37*
G36*
X166800Y88954D02*
Y87300D01*
X168454D01*
X168149Y88036D01*
X167535Y88649D01*
X166800Y88954D01*
D02*
G37*
G36*
X165800D02*
X165065Y88649D01*
X164451Y88036D01*
X164146Y87300D01*
X165800D01*
Y88954D01*
D02*
G37*
G36*
X168454Y86300D02*
X166800D01*
Y84646D01*
X167535Y84951D01*
X168149Y85565D01*
X168454Y86300D01*
D02*
G37*
G36*
X165800D02*
X164146D01*
X164451Y85565D01*
X165065Y84951D01*
X165800Y84646D01*
Y86300D01*
D02*
G37*
G36*
X258768Y67008D02*
Y65354D01*
X260421D01*
X260117Y66090D01*
X259503Y66703D01*
X258768Y67008D01*
D02*
G37*
G36*
X257768D02*
X257032Y66703D01*
X256419Y66090D01*
X256114Y65354D01*
X257768D01*
Y67008D01*
D02*
G37*
G36*
X202650D02*
X201914Y66703D01*
X201301Y66090D01*
X200996Y65354D01*
X202650D01*
Y67008D01*
D02*
G37*
G36*
X123431D02*
Y65354D01*
X125085D01*
X124780Y66090D01*
X124167Y66703D01*
X123431Y67008D01*
D02*
G37*
G36*
X122431D02*
X121696Y66703D01*
X121082Y66090D01*
X120777Y65354D01*
X122431D01*
Y67008D01*
D02*
G37*
G36*
X106165D02*
Y65354D01*
X107819D01*
X107514Y66090D01*
X106901Y66703D01*
X106165Y67008D01*
D02*
G37*
G36*
X105165D02*
X104430Y66703D01*
X103816Y66090D01*
X103512Y65354D01*
X105165D01*
Y67008D01*
D02*
G37*
G36*
X89499D02*
Y65354D01*
X91152D01*
X90848Y66090D01*
X90234Y66703D01*
X89499Y67008D01*
D02*
G37*
G36*
X88499D02*
X87763Y66703D01*
X87150Y66090D01*
X86845Y65354D01*
X88499D01*
Y67008D01*
D02*
G37*
G36*
X38295D02*
Y65354D01*
X39949D01*
X39644Y66090D01*
X39031Y66703D01*
X38295Y67008D01*
D02*
G37*
G36*
X37295D02*
X36560Y66703D01*
X35946Y66090D01*
X35642Y65354D01*
X37295D01*
Y67008D01*
D02*
G37*
G36*
X10736D02*
Y65354D01*
X12390D01*
X12085Y66090D01*
X11472Y66703D01*
X10736Y67008D01*
D02*
G37*
G36*
X9736D02*
X9001Y66703D01*
X8387Y66090D01*
X8083Y65354D01*
X9736D01*
Y67008D01*
D02*
G37*
G36*
X231305Y66148D02*
X229336D01*
Y62998D01*
X231305D01*
Y66148D01*
D02*
G37*
G36*
X227336D02*
X225368D01*
Y62998D01*
X227336D01*
Y66148D01*
D02*
G37*
G36*
X202650Y64354D02*
X200996D01*
X201301Y63619D01*
X201914Y63005D01*
X202650Y62701D01*
Y64354D01*
D02*
G37*
G36*
X125085D02*
X123431D01*
Y62701D01*
X124167Y63005D01*
X124780Y63619D01*
X125085Y64354D01*
D02*
G37*
G36*
X122431D02*
X120777D01*
X121082Y63619D01*
X121696Y63005D01*
X122431Y62701D01*
Y64354D01*
D02*
G37*
G36*
X107819D02*
X106165D01*
Y62701D01*
X106901Y63005D01*
X107514Y63619D01*
X107819Y64354D01*
D02*
G37*
G36*
X105165D02*
X103512D01*
X103816Y63619D01*
X104430Y63005D01*
X105165Y62701D01*
Y64354D01*
D02*
G37*
G36*
X91152D02*
X89499D01*
Y62701D01*
X90234Y63005D01*
X90848Y63619D01*
X91152Y64354D01*
D02*
G37*
G36*
X88499D02*
X86845D01*
X87150Y63619D01*
X87763Y63005D01*
X88499Y62701D01*
Y64354D01*
D02*
G37*
G36*
X39949D02*
X38295D01*
Y62701D01*
X39031Y63005D01*
X39644Y63619D01*
X39949Y64354D01*
D02*
G37*
G36*
X37295D02*
X35642D01*
X35946Y63619D01*
X36560Y63005D01*
X37295Y62701D01*
Y64354D01*
D02*
G37*
G36*
X12390D02*
X10736D01*
Y62701D01*
X11472Y63005D01*
X12085Y63619D01*
X12390Y64354D01*
D02*
G37*
G36*
X9736D02*
X8083D01*
X8387Y63619D01*
X9001Y63005D01*
X9736Y62701D01*
Y64354D01*
D02*
G37*
G36*
X260421D02*
X258768D01*
Y62701D01*
X259503Y63005D01*
X260117Y63619D01*
X260421Y64354D01*
D02*
G37*
G36*
X257768D02*
X256114D01*
X256419Y63619D01*
X257032Y63005D01*
X257768Y62701D01*
Y64354D01*
D02*
G37*
G36*
X231305Y60998D02*
X229336D01*
Y57849D01*
X231305D01*
Y60998D01*
D02*
G37*
G36*
X227336D02*
X225368D01*
Y57849D01*
X227336D01*
Y60998D01*
D02*
G37*
G36*
X258768Y39449D02*
Y37795D01*
X260421D01*
X260117Y38531D01*
X259503Y39144D01*
X258768Y39449D01*
D02*
G37*
G36*
X257768D02*
X257032Y39144D01*
X256419Y38531D01*
X256114Y37795D01*
X257768D01*
Y39449D01*
D02*
G37*
G36*
X217429D02*
Y37795D01*
X219083D01*
X218778Y38531D01*
X218165Y39144D01*
X217429Y39449D01*
D02*
G37*
G36*
X216429D02*
X215694Y39144D01*
X215080Y38531D01*
X214775Y37795D01*
X216429D01*
Y39449D01*
D02*
G37*
G36*
X162311D02*
Y37795D01*
X163965D01*
X163660Y38531D01*
X163047Y39144D01*
X162311Y39449D01*
D02*
G37*
G36*
X161311D02*
X160576Y39144D01*
X159962Y38531D01*
X159657Y37795D01*
X161311D01*
Y39449D01*
D02*
G37*
G36*
X52075D02*
Y37795D01*
X53728D01*
X53424Y38531D01*
X52810Y39144D01*
X52075Y39449D01*
D02*
G37*
G36*
X51075D02*
X50339Y39144D01*
X49726Y38531D01*
X49421Y37795D01*
X51075D01*
Y39449D01*
D02*
G37*
G36*
X24516D02*
Y37795D01*
X26169D01*
X25865Y38531D01*
X25251Y39144D01*
X24516Y39449D01*
D02*
G37*
G36*
X23516D02*
X22780Y39144D01*
X22167Y38531D01*
X21862Y37795D01*
X23516D01*
Y39449D01*
D02*
G37*
G36*
X260421Y36795D02*
X258768D01*
Y35142D01*
X259503Y35446D01*
X260117Y36060D01*
X260421Y36795D01*
D02*
G37*
G36*
X257768D02*
X256114D01*
X256419Y36060D01*
X257032Y35446D01*
X257768Y35142D01*
Y36795D01*
D02*
G37*
G36*
X219083D02*
X217429D01*
Y35142D01*
X218165Y35446D01*
X218778Y36060D01*
X219083Y36795D01*
D02*
G37*
G36*
X216429D02*
X214775D01*
X215080Y36060D01*
X215694Y35446D01*
X216429Y35142D01*
Y36795D01*
D02*
G37*
G36*
X163965D02*
X162311D01*
Y35142D01*
X163047Y35446D01*
X163660Y36060D01*
X163965Y36795D01*
D02*
G37*
G36*
X161311D02*
X159657D01*
X159962Y36060D01*
X160576Y35446D01*
X161311Y35142D01*
Y36795D01*
D02*
G37*
G36*
X53728D02*
X52075D01*
Y35142D01*
X52810Y35446D01*
X53424Y36060D01*
X53728Y36795D01*
D02*
G37*
G36*
X51075D02*
X49421D01*
X49726Y36060D01*
X50339Y35446D01*
X51075Y35142D01*
Y36795D01*
D02*
G37*
G36*
X26169D02*
X24516D01*
Y35142D01*
X25251Y35446D01*
X25865Y36060D01*
X26169Y36795D01*
D02*
G37*
G36*
X23516D02*
X21862D01*
X22167Y36060D01*
X22780Y35446D01*
X23516Y35142D01*
Y36795D01*
D02*
G37*
G36*
X247234Y41920D02*
X239360D01*
Y31683D01*
X247234D01*
Y41920D01*
D02*
G37*
G36*
X232273D02*
X224399D01*
Y31683D01*
X232273D01*
Y41920D01*
D02*
G37*
G36*
X212361D02*
X204487D01*
Y31683D01*
X212361D01*
Y41920D01*
D02*
G37*
G36*
X197400D02*
X189526D01*
Y31683D01*
X197400D01*
Y41920D01*
D02*
G37*
G36*
X184510Y31656D02*
X182640D01*
Y28900D01*
X184510D01*
Y31656D01*
D02*
G37*
G36*
X180640D02*
X178770D01*
Y28900D01*
X180640D01*
Y31656D01*
D02*
G37*
G36*
X64154Y29269D02*
X62846D01*
X61582Y28930D01*
X60449Y28276D01*
X59524Y27351D01*
X58870Y26218D01*
X58862Y26189D01*
X58138D01*
X58130Y26218D01*
X57476Y27351D01*
X56551Y28276D01*
X55418Y28930D01*
X54154Y29269D01*
X52846D01*
X51582Y28930D01*
X50449Y28276D01*
X49524Y27351D01*
X48870Y26218D01*
X48531Y24954D01*
Y23646D01*
X48870Y22382D01*
X49524Y21249D01*
X50449Y20324D01*
X51582Y19670D01*
X52846Y19331D01*
X54154D01*
X55418Y19670D01*
X56551Y20324D01*
X57476Y21249D01*
X58130Y22382D01*
X58138Y22411D01*
X58862D01*
X58870Y22382D01*
X59524Y21249D01*
X60449Y20324D01*
X61582Y19670D01*
X62846Y19331D01*
X64154D01*
X65418Y19670D01*
X66551Y20324D01*
X67476Y21249D01*
X68130Y22382D01*
X68468Y23646D01*
Y24954D01*
X68130Y26218D01*
X67476Y27351D01*
X66551Y28276D01*
X65418Y28930D01*
X64154Y29269D01*
D02*
G37*
G36*
X74500Y28173D02*
Y25300D01*
X77373D01*
X77227Y25844D01*
X76701Y26756D01*
X75956Y27501D01*
X75044Y28027D01*
X74500Y28173D01*
D02*
G37*
G36*
X72500D02*
X71956Y28027D01*
X71044Y27501D01*
X70299Y26756D01*
X69773Y25844D01*
X69627Y25300D01*
X72500D01*
Y28173D01*
D02*
G37*
G36*
X184510Y26900D02*
X182640D01*
Y24144D01*
X184510D01*
Y26900D01*
D02*
G37*
G36*
X180640D02*
X178770D01*
Y24144D01*
X180640D01*
Y26900D01*
D02*
G37*
G36*
X77373Y23300D02*
X74500D01*
Y20427D01*
X75044Y20573D01*
X75956Y21099D01*
X76701Y21844D01*
X77227Y22756D01*
X77373Y23300D01*
D02*
G37*
G36*
X72500D02*
X69627D01*
X69773Y22756D01*
X70299Y21844D01*
X71044Y21099D01*
X71956Y20573D01*
X72500Y20427D01*
Y23300D01*
D02*
G37*
G36*
X231209Y11890D02*
Y10236D01*
X232862D01*
X232558Y10972D01*
X231944Y11585D01*
X231209Y11890D01*
D02*
G37*
G36*
X230209D02*
X229473Y11585D01*
X228860Y10972D01*
X228555Y10236D01*
X230209D01*
Y11890D01*
D02*
G37*
G36*
X203650D02*
Y10236D01*
X205303D01*
X204999Y10972D01*
X204385Y11585D01*
X203650Y11890D01*
D02*
G37*
G36*
X202650D02*
X201914Y11585D01*
X201301Y10972D01*
X200996Y10236D01*
X202650D01*
Y11890D01*
D02*
G37*
G36*
X176091D02*
Y10236D01*
X177744D01*
X177440Y10972D01*
X176826Y11585D01*
X176091Y11890D01*
D02*
G37*
G36*
X175091D02*
X174355Y11585D01*
X173742Y10972D01*
X173437Y10236D01*
X175091D01*
Y11890D01*
D02*
G37*
G36*
X148531D02*
Y10236D01*
X150185D01*
X149881Y10972D01*
X149267Y11585D01*
X148531Y11890D01*
D02*
G37*
G36*
X147531D02*
X146796Y11585D01*
X146183Y10972D01*
X145878Y10236D01*
X147531D01*
Y11890D01*
D02*
G37*
G36*
X38295D02*
Y10236D01*
X39949D01*
X39644Y10972D01*
X39031Y11585D01*
X38295Y11890D01*
D02*
G37*
G36*
X37295D02*
X36560Y11585D01*
X35946Y10972D01*
X35642Y10236D01*
X37295D01*
Y11890D01*
D02*
G37*
G36*
X232862Y9236D02*
X231209D01*
Y7582D01*
X231944Y7887D01*
X232558Y8501D01*
X232862Y9236D01*
D02*
G37*
G36*
X230209D02*
X228555D01*
X228860Y8501D01*
X229473Y7887D01*
X230209Y7582D01*
Y9236D01*
D02*
G37*
G36*
X205303D02*
X203650D01*
Y7582D01*
X204385Y7887D01*
X204999Y8501D01*
X205303Y9236D01*
D02*
G37*
G36*
X202650D02*
X200996D01*
X201301Y8501D01*
X201914Y7887D01*
X202650Y7582D01*
Y9236D01*
D02*
G37*
G36*
X177744D02*
X176091D01*
Y7582D01*
X176826Y7887D01*
X177440Y8501D01*
X177744Y9236D01*
D02*
G37*
G36*
X175091D02*
X173437D01*
X173742Y8501D01*
X174355Y7887D01*
X175091Y7582D01*
Y9236D01*
D02*
G37*
G36*
X150185D02*
X148531D01*
Y7582D01*
X149267Y7887D01*
X149881Y8501D01*
X150185Y9236D01*
D02*
G37*
G36*
X147531D02*
X145878D01*
X146183Y8501D01*
X146796Y7887D01*
X147531Y7582D01*
Y9236D01*
D02*
G37*
G36*
X39949D02*
X38295D01*
Y7582D01*
X39031Y7887D01*
X39644Y8501D01*
X39949Y9236D01*
D02*
G37*
G36*
X37295D02*
X35642D01*
X35946Y8501D01*
X36560Y7887D01*
X37295Y7582D01*
Y9236D01*
D02*
G37*
%LPD*%
D18*
X234200Y127200D02*
Y152902D01*
X236200Y154902D01*
Y155000D01*
X242261Y237659D02*
Y265160D01*
X239000Y150300D02*
X243000Y154300D01*
Y171101D01*
X196337Y137263D02*
X212400Y121200D01*
Y142800D02*
Y145500D01*
X204826Y153074D02*
Y156900D01*
Y153074D02*
X212400Y145500D01*
X197200Y49400D02*
X215200D01*
X193463Y53137D02*
Y61998D01*
Y53137D02*
X197200Y49400D01*
X227164Y79464D02*
Y93200D01*
X218900Y53100D02*
Y71200D01*
X227164Y79464D01*
X215200Y49400D02*
X218900Y53100D01*
X193165Y61700D02*
X193463Y61998D01*
X174160Y45460D02*
X190400Y61700D01*
X193165D01*
X174160Y27900D02*
Y45460D01*
X181956Y145137D02*
X199263D01*
X212500Y131900D01*
X181956Y137263D02*
X196337D01*
X203609Y101810D02*
Y111279D01*
X213800Y100900D02*
X219300D01*
X211400Y103300D02*
X213800Y100900D01*
X211442Y111237D02*
X211484Y111279D01*
X211400Y103300D02*
X211442Y103342D01*
Y111237D01*
X211400Y103300D02*
X211400D01*
X26612Y215904D02*
X28616Y213900D01*
X60200D02*
X72062Y225762D01*
X28616Y213900D02*
X60200D01*
X72062Y225762D02*
Y236900D01*
X187169Y182531D02*
X187279D01*
X187100Y182600D02*
X187169Y182531D01*
X187279D02*
X195735Y174074D01*
Y171121D02*
Y174074D01*
X107300Y162900D02*
X135600D01*
X123782Y169500D02*
X136982Y182700D01*
X227232Y153431D02*
X230700Y156900D01*
X227232Y111279D02*
Y153431D01*
X219357Y111279D02*
Y153657D01*
X222600Y156900D01*
X196952D02*
X203609Y163558D01*
Y171121D01*
X204826Y156900D02*
X211484Y163558D01*
Y171121D01*
X219357Y163558D02*
Y171121D01*
X212700Y156900D02*
X219357Y163558D01*
X239011Y77689D02*
X243297Y73403D01*
X239011Y77689D02*
Y100600D01*
X242980Y96956D02*
Y111279D01*
X243137Y96700D02*
Y96798D01*
X242980Y96956D02*
X243137Y96798D01*
X235043Y96700D02*
Y111216D01*
X235105Y111279D01*
X243297Y61998D02*
Y73403D01*
X164500Y78600D02*
X190000D01*
X123500Y37600D02*
X164500Y78600D01*
X190000D02*
X195637Y84237D01*
X123500Y24300D02*
Y37600D01*
X195637Y84237D02*
Y93200D01*
X219300Y100900D02*
X222636Y97564D01*
X242980Y171121D02*
Y179420D01*
X195686Y111230D02*
X195735Y111279D01*
X195686Y93249D02*
Y111230D01*
X195637Y93200D02*
X195686Y93249D01*
X222636Y93200D02*
Y97564D01*
X213837Y80037D02*
Y93200D01*
X208424Y61998D02*
Y74624D01*
X213837Y80037D01*
Y93200D02*
X222636D01*
X8500Y207200D02*
X15544Y200156D01*
X8500Y270100D02*
X49536Y311136D01*
X8500Y207200D02*
Y270100D01*
X49536Y311136D02*
Y317800D01*
X15544Y200156D02*
X26612D01*
X169840Y313840D02*
X170710Y314710D01*
Y332100D01*
X160600Y313840D02*
X169840D01*
X223169Y282900D02*
Y305070D01*
X212339Y315900D02*
X223169Y305070D01*
X216700Y282900D02*
X223169D01*
X212300Y278500D02*
X216700Y282900D01*
X212300Y268939D02*
X212339Y268900D01*
X212300Y268939D02*
Y278500D01*
X221394Y272640D02*
X242261D01*
X238436Y183964D02*
X242980Y179420D01*
X238436Y183964D02*
Y188000D01*
X227300Y171190D02*
Y177600D01*
X223700Y181200D02*
X227300Y177600D01*
X227232Y171121D02*
X227300Y171190D01*
X217745Y181200D02*
X223700D01*
X211437Y187508D02*
X217745Y181200D01*
X211437Y187508D02*
Y188000D01*
X229637D02*
X238436D01*
D22*
X135800Y292980D02*
D03*
Y301248D02*
D03*
D34*
X117201Y269700D02*
D03*
X112673D02*
D03*
X242964Y188000D02*
D03*
X238436D02*
D03*
X222636Y93200D02*
D03*
X227164D02*
D03*
D36*
X144311Y222700D02*
D03*
X136043D02*
D03*
D38*
X166400Y141791D02*
D03*
Y137263D02*
D03*
D39*
Y160885D02*
D03*
Y154383D02*
D03*
D55*
X181640Y27900D02*
D03*
X174160D02*
D03*
D56*
X242980Y171121D02*
D03*
X235105D02*
D03*
X227232D02*
D03*
X219357D02*
D03*
X211484D02*
D03*
X203609D02*
D03*
X195735D02*
D03*
X187861D02*
D03*
Y111279D02*
D03*
X195735D02*
D03*
X203609D02*
D03*
X211484D02*
D03*
X219357D02*
D03*
X227232D02*
D03*
X235105D02*
D03*
X242980D02*
D03*
D57*
X181956Y160885D02*
D03*
Y153011D02*
D03*
Y145137D02*
D03*
Y137263D02*
D03*
Y129389D02*
D03*
Y121515D02*
D03*
D58*
X183900Y249241D02*
D03*
Y237745D02*
D03*
D59*
X159490Y332100D02*
D03*
X170710D02*
D03*
D60*
X170006Y255855D02*
D03*
Y246800D02*
D03*
Y237745D02*
D03*
D61*
X208424Y61998D02*
D03*
Y36802D02*
D03*
X193463Y61998D02*
D03*
Y36802D02*
D03*
X243297Y61998D02*
D03*
Y36802D02*
D03*
X228336Y61998D02*
D03*
Y36802D02*
D03*
D62*
X242261Y272640D02*
D03*
Y265160D02*
D03*
X169600Y313840D02*
D03*
Y306360D02*
D03*
X160600Y313840D02*
D03*
Y306360D02*
D03*
D63*
X221394Y265160D02*
D03*
Y272640D02*
D03*
X212339Y268900D02*
D03*
D64*
X229862Y282900D02*
D03*
X223169D02*
D03*
D65*
X158510Y222700D02*
D03*
X170006D02*
D03*
D66*
X145794Y246800D02*
D03*
D67*
X114937Y287862D02*
D03*
Y306366D02*
D03*
D68*
X109330Y250817D02*
D03*
Y233770D02*
D03*
D69*
X85251Y169477D02*
D03*
Y104123D02*
D03*
D70*
X221763Y188000D02*
D03*
X229637D02*
D03*
X203563D02*
D03*
X211437D02*
D03*
X213837Y93200D02*
D03*
X205963D02*
D03*
X195637D02*
D03*
X187763D02*
D03*
D71*
X157070Y141791D02*
X170757D01*
X173100Y139447D01*
Y116300D02*
Y139447D01*
Y116300D02*
X179200Y110200D01*
X155530Y140250D02*
Y155430D01*
X159490Y332100D02*
Y333675D01*
X166400Y160885D02*
Y191300D01*
X169900Y194800D01*
X155530Y155430D02*
X160782Y160682D01*
X166197D02*
X166400Y160885D01*
X160782Y160682D02*
X166197D01*
X200800Y79000D02*
X205963Y84163D01*
Y93200D01*
X135000Y142593D02*
Y153300D01*
X146100Y164400D02*
Y194501D01*
X135000Y153300D02*
X146100Y164400D01*
X136043Y204557D02*
X146100Y194501D01*
X136043Y204557D02*
Y222700D01*
X137343Y140250D02*
X144200D01*
X135000Y142593D02*
X137343Y140250D01*
X144200D02*
X155530D01*
X157070Y141791D01*
X179100Y173464D02*
Y183800D01*
X183300Y188000D02*
X203563D01*
X179100Y183800D02*
X183300Y188000D01*
X181443Y171121D02*
X187861D01*
X179100Y173464D02*
X181443Y171121D01*
X203563Y188000D02*
Y193863D01*
X207900Y198200D01*
X218126D01*
X221763Y194563D01*
X258500Y231300D02*
Y275400D01*
X230162Y282600D02*
X251300D01*
X258500Y275400D01*
X229862Y282900D02*
X230162Y282600D01*
X221763Y194563D02*
X258500Y231300D01*
X221763Y188000D02*
Y194563D01*
X229862Y282900D02*
Y303502D01*
X242261Y315900D01*
X152600Y281500D02*
Y323635D01*
Y264800D02*
Y281500D01*
X135800Y282000D02*
Y292980D01*
X152600Y323635D02*
X159490Y330525D01*
X152600Y264800D02*
X161545Y255855D01*
X170006D01*
X176439D01*
X183054Y249241D01*
X183900D01*
X162420Y246800D02*
X170006D01*
X158510Y242890D02*
X162420Y246800D01*
X145794D02*
X154600D01*
X158510Y242890D01*
Y222700D02*
Y242890D01*
X144311Y222700D02*
X158510D01*
X109330Y251132D02*
X117201Y259003D01*
Y269700D01*
X109330Y250817D02*
Y251132D01*
X137115Y269700D02*
X144900Y277485D01*
X117201Y269700D02*
X137115D01*
X114937Y319916D02*
X125402Y330380D01*
X135934Y301248D02*
X136249Y300933D01*
X125402Y330695D02*
X126039Y331333D01*
X141052Y300933D02*
X144900Y297085D01*
X115003Y305985D02*
X130748D01*
X114937Y306366D02*
Y319916D01*
X126039Y331333D02*
X126354D01*
X114937Y306051D02*
X115003Y305985D01*
X125402Y330380D02*
Y330695D01*
X144900Y277485D02*
Y297085D01*
X130748Y305985D02*
X135438Y301295D01*
X135800Y301248D02*
X135934D01*
X136249Y300933D02*
X141052D01*
X68757Y271242D02*
X82672D01*
X62800Y277200D02*
X68757Y271242D01*
X26612Y263148D02*
X40664Y277200D01*
X62800D01*
X99292Y287862D02*
X114937D01*
X82672Y271242D02*
X99292Y287862D01*
D72*
X85251Y169477D02*
Y192400D01*
X61139Y104123D02*
X85251D01*
X55216Y98200D02*
X61139Y104123D01*
X35216Y98200D02*
Y114534D01*
X46082Y125400D01*
X26612Y168660D02*
X41826D01*
X85251Y212085D01*
D73*
X48100Y259500D02*
D03*
X184900Y209700D02*
D03*
X174300Y63600D02*
D03*
D74*
X53500Y24300D02*
D03*
X63500D02*
D03*
X73500D02*
D03*
X83500D02*
D03*
X93500D02*
D03*
X103500D02*
D03*
X113500D02*
D03*
X143700Y355100D02*
D03*
X133700D02*
D03*
X123700D02*
D03*
D75*
X123500Y24300D02*
D03*
X153700Y355100D02*
D03*
D76*
X144200Y150250D02*
D03*
Y140250D02*
D03*
Y130250D02*
D03*
Y120250D02*
D03*
Y110250D02*
D03*
Y100250D02*
D03*
D77*
X26612Y214004D02*
D03*
Y249300D02*
D03*
D78*
Y168660D02*
D03*
Y184408D02*
D03*
Y263148D02*
D03*
Y200156D02*
D03*
D79*
X212339Y315900D02*
D03*
X242261D02*
D03*
D80*
X46082Y145085D02*
D03*
Y125400D02*
D03*
D81*
X126354Y331648D02*
D03*
D82*
X106669D02*
D03*
X85251Y212085D02*
D03*
Y192400D02*
D03*
X82672Y261400D02*
D03*
D83*
Y271242D02*
D03*
D84*
X35216Y98200D02*
D03*
X55216D02*
D03*
X72062Y236900D02*
D03*
X91747D02*
D03*
D85*
X49536Y317800D02*
D03*
D86*
X79064D02*
D03*
D87*
X258268Y37295D02*
D03*
X230709Y257768D02*
D03*
X260300Y216400D02*
D03*
X212339Y235938D02*
D03*
X173100Y156300D02*
D03*
X166300Y86800D02*
D03*
X234200Y127200D02*
D03*
X166400Y125500D02*
D03*
X242261Y237659D02*
D03*
X236200Y155000D02*
D03*
X230709Y340445D02*
D03*
X239000Y150300D02*
D03*
X212400Y121200D02*
D03*
X203150Y340445D02*
D03*
X179200Y110200D02*
D03*
X212400Y142800D02*
D03*
X212500Y131900D02*
D03*
X203600Y101800D02*
D03*
X139000Y340445D02*
D03*
X211400Y103300D02*
D03*
X170100Y285327D02*
D03*
Y202650D02*
D03*
X186625Y257768D02*
D03*
X143700Y312886D02*
D03*
X122931Y64854D02*
D03*
X105665D02*
D03*
X88999D02*
D03*
X258268Y285327D02*
D03*
Y64854D02*
D03*
X230709Y9736D02*
D03*
X203150Y285327D02*
D03*
Y64854D02*
D03*
X216929Y37295D02*
D03*
X203150Y9736D02*
D03*
X175591D02*
D03*
X161811Y37295D02*
D03*
X148031Y9736D02*
D03*
X134252Y257768D02*
D03*
X92913Y340445D02*
D03*
X106693Y312886D02*
D03*
X65354Y340445D02*
D03*
Y285327D02*
D03*
X37795Y340445D02*
D03*
Y285327D02*
D03*
Y64854D02*
D03*
X51575Y37295D02*
D03*
X37795Y9736D02*
D03*
X10236Y64854D02*
D03*
X24016Y37295D02*
D03*
X183300Y188000D02*
D03*
X169900Y194800D02*
D03*
X200800Y79000D02*
D03*
X135600Y162900D02*
D03*
X187100Y182600D02*
D03*
X135800Y282000D02*
D03*
X152600D02*
D03*
X136982Y182700D02*
D03*
X107300Y162900D02*
D03*
X123751Y169500D02*
D03*
X212700Y156900D02*
D03*
X222600D02*
D03*
X230700D02*
D03*
X204826D02*
D03*
X196952D02*
D03*
X239011Y101100D02*
D03*
X235105Y96700D02*
D03*
X242980D02*
D03*
M02*
