M48
;Layer_Color=9474304
;FILE_FORMAT=2:5
INCH,LZ
;TYPE=PLATED
T1F00S00C0.01181
T2F00S00C0.02953
T3F00S00C0.03000
T4F00S00C0.03150
T5F00S00C0.03346
T6F00S00C0.03543
T7F00S00C0.03937
T8F00S00C0.04134
T9F00S00C0.05118
T11F00S00C0.12598
;TYPE=NON_PLATED
%
T01
X0037795Y0009736
X0051575Y0037295
X0024016
X0161811
X0175591Y0009736
X020315
X0148031
X0230709
X0216929Y0037295
X0258268
Y0064854
X024298Y00967
X0235105
X0239011Y01011
X02342Y01272
X02125Y01319
X02127Y01569
X02226
X02307
X02362Y0155
X0239Y01503
X02124Y01428
Y01212
X02114Y01033
X02036Y01018
X02008Y0079
X020315Y0064854
X01663Y00868
X01792Y01102
X01664Y01255
X01731Y01563
X0196952Y01569
X0204826
X01871Y01826
X01833Y0188
X01699Y01948
X01701Y020265
X0136982Y01827
X01356Y01629
X0123751Y01695
X01073Y01629
X0105665Y0064854
X0088999
X0122931
X0037795
X0010236
X0037795Y0285327
Y0340445
X0065354
X0092913
X0106693Y0312886
X01437
X0139Y0340445
X01358Y0282
X01526
X01701Y0285327
X020315
X0186625Y0257768
X0212339Y0235938
X0134252Y0257768
X0065354Y0285327
X020315Y0340445
X0230709
Y0257768
X0242261Y0237659
X02603Y02164
X0258268Y0285327
T02
X0072062Y02369
X0091747
T03
X00535Y00243
X00635
X00735
X00835
X00935
X01035
X01135
X01235
X01237Y03551
X01337
X01437
X01537
T04
X0035216Y00982
X0055216
X0212339Y03159
X0242261
T05
X0082672Y02614
Y0271242
X0106669Y0331648
X0126354
T06
X0085251Y01924
Y0212085
T07
X01442Y010025
Y011025
Y012025
Y013025
Y014025
Y015025
T08
X0049536Y03178
X0079064
T09
X0046082Y01254
Y0145085
T11
X01743Y00636
X01849Y02097
X00481Y02595
M30
